<?xml version="1.0" encoding="utf-8"?>
<!-- Generator: Adobe Illustrator 27.5.0, SVG Export Plug-In . SVG Version: 6.00 Build 0)  -->
<svg version="1.1" xmlns="http://www.w3.org/2000/svg" xmlns:xlink="http://www.w3.org/1999/xlink" x="0px" y="0px"
	 viewBox="0 0 500 500" style="enable-background:new 0 0 500 500;" xml:space="preserve">
<g id="BACKGROUND">
	<rect id="XMLID_117_" style="fill:#E6FDFF;" width="500" height="500"/>
</g>
<g id="OBJECTS">
	<g id="XMLID_124_">
		<path id="XMLID_127_" style="fill:#FFC84D;" d="M154.04,103.619l-31.207,74.936h12.707v-25.227h39.43v25.227h14.949v30.834
			h-14.949v25.415h-39.43v-25.415H79.665v-28.031l33.638-77.739H154.04z"/>
		<path id="XMLID_129_" style="fill:#FFC84D;" d="M301.111,169.212c0,42.981-18.874,66.714-52.885,66.714
			c-34.385,0-53.073-23.732-53.073-66.714c0-42.981,18.688-66.714,53.073-66.714C282.237,102.498,301.111,126.231,301.111,169.212z
			 M236.078,169.212c0,27.47,2.804,37.561,12.148,37.561c9.158,0,11.96-10.091,11.96-37.561c0-27.657-2.802-37.562-11.96-37.562
			C238.882,131.65,236.078,141.555,236.078,169.212z"/>
		<path id="XMLID_132_" style="fill:#FFC84D;" d="M384.646,103.619l-31.207,74.936h12.706v-25.227h39.43v25.227h14.95v30.834h-14.95
			v25.415h-39.43v-25.415h-55.874v-28.031l33.636-77.739H384.646z"/>
	</g>
	<ellipse id="XMLID_109_" style="fill:#B3EFF4;" cx="221.512" cy="374.727" rx="26.904" ry="10.116"/>
	<ellipse id="XMLID_134_" style="fill:#B3EFF4;" cx="280.012" cy="374.727" rx="26.904" ry="10.116"/>
	<g id="XMLID_119_">
		<path id="XMLID_123_" style="fill:none;stroke:#485F66;stroke-miterlimit:10;" d="M500,314.311c0,0-111.795,17.346-128.448-29.836
			c-16.066-45.521-16.511-81.152-26.804-90.148"/>
		<path id="XMLID_81_" style="fill:none;stroke:#485F66;stroke-miterlimit:10;" d="M0,314.311c0,0,111.985,17.346,128.638-29.836
			c16.066-45.521,16.511-81.152,26.804-90.148"/>
		<g id="XMLID_56_">
			<polygon id="XMLID_103_" style="fill:#395156;" points="277.747,330.816 273.124,361.735 262.892,361.735 258.261,330.816 			"/>
			<polygon id="XMLID_96_" style="fill:#485F66;" points="273.14,330.816 268.517,361.735 262.892,361.735 258.261,330.816 			"/>
			<polygon id="XMLID_51_" style="fill:#395156;" points="271.785,380.131 289.183,375.756 273.774,361.043 262.937,361.043 
				262.937,366.113 			"/>
			<polygon id="XMLID_102_" style="fill:#395156;" points="276.128,317.572 263.229,319.647 262.435,319.775 256.699,320.696 
				256.522,319.999 246.699,281.573 254.239,280.571 255.032,280.467 265.392,279.097 269.839,278.504 			"/>
			<polygon id="XMLID_91_" style="fill:#485F66;" points="271.585,317.572 258.686,319.647 257.892,319.775 256.522,319.999 
				246.699,281.573 254.239,280.571 255.032,280.467 265.392,279.097 			"/>
			
				<rect id="XMLID_55_" x="255.963" y="317.701" transform="matrix(-0.9873 0.159 -0.159 -0.9873 580.6577 594.0627)" style="fill:#395156;" width="21.213" height="5.106"/>
			<polygon id="XMLID_104_" style="fill:#395156;" points="278.436,325.976 275.247,326.321 257.348,328.26 256.795,323.18 
				274.694,321.241 277.883,320.897 			"/>
			
				<rect id="XMLID_88_" x="257.019" y="322.195" transform="matrix(0.9942 -0.1077 0.1077 0.9942 -33.4261 30.5372)" style="fill:#485F66;" width="18.004" height="5.11"/>
			
				<rect id="XMLID_53_" x="257.156" y="326.897" transform="matrix(-0.9967 0.0817 -0.0817 -0.9967 561.5367 635.9326)" style="fill:#395156;" width="21.213" height="5.106"/>
			<polygon id="XMLID_67_" style="fill:#485F66;" points="289.183,375.756 289.183,379.534 271.785,380.131 			"/>
			<g id="XMLID_80_">
				<polygon id="XMLID_89_" style="fill:#395156;" points="268.18,366.141 267.379,366.214 263.91,326.818 262.435,319.775 
					254.239,280.571 255.032,280.467 263.229,319.647 264.703,326.697 				"/>
			</g>
			<polygon id="XMLID_107_" style="fill:#395156;" points="239.408,330.816 234.785,361.735 224.546,361.735 219.923,330.816 			"/>
			<polygon id="XMLID_99_" style="fill:#485F66;" points="235.667,330.816 231.044,361.735 224.546,361.735 219.923,330.816 			"/>
			<polygon id="XMLID_40_" style="fill:#395156;" points="225.887,380.131 208.489,375.756 224.433,360.908 234.736,361.043 
				234.736,366.113 			"/>
			<polygon id="XMLID_105_" style="fill:#395156;" points="251.274,281.573 241.275,320.696 237.485,320.087 236.244,319.887 
				235.458,319.759 221.838,317.572 228.047,279.017 228.127,278.504 243.647,280.563 244.448,280.667 			"/>
			<polygon id="XMLID_86_" style="fill:#485F66;" points="247.332,281.573 237.485,320.087 236.244,319.887 235.458,319.759 
				221.838,317.572 228.047,279.017 239.705,280.563 240.506,280.667 			"/>
			<polygon id="XMLID_94_" style="fill:#395156;" points="241.98,319.422 241.171,324.462 220.227,321.089 221.036,316.049 
				235.739,318.421 236.524,318.541 			"/>
			<polygon id="XMLID_108_" style="fill:#395156;" points="240.875,323.18 240.33,328.26 236.764,327.875 219.242,325.976 
				219.786,320.897 237.309,322.795 			"/>
			<polygon id="XMLID_98_" style="fill:#485F66;" points="237.309,322.795 236.764,327.875 219.242,325.976 219.786,320.897 			"/>
			
				<rect id="XMLID_47_" x="219.303" y="326.897" transform="matrix(0.9967 0.0817 -0.0817 0.9967 27.6731 -17.6755)" style="fill:#395156;" width="21.213" height="5.106"/>
			<polygon id="XMLID_66_" style="fill:#485F66;" points="208.489,375.756 208.489,379.501 225.887,380.131 			"/>
			<g id="XMLID_77_">
				<polygon id="XMLID_93_" style="fill:#395156;" points="233.64,330.816 234.441,330.816 231.717,361.735 230.915,361.735 				"/>
				<polygon id="XMLID_92_" style="fill:#395156;" points="244.448,280.667 236.524,318.541 235.739,318.421 243.647,280.563 				
					"/>
			</g>
			<rect id="XMLID_64_" x="247.699" y="97.617" style="fill:#6D8189;" width="1.252" height="19.43"/>
			<path id="XMLID_63_" style="fill:#485F66;" d="M254.359,122.589h-11.267v-1.026c0-3.111,2.522-5.634,5.634-5.634l0,0
				c3.111,0,5.634,2.522,5.634,5.634V122.589z"/>
			
				<rect id="XMLID_62_" x="314.674" y="189.949" transform="matrix(-0.5697 -0.8218 0.8218 -0.5697 331.3517 588.0736)" style="fill:#485F66;" width="9.882" height="34.701"/>
			<polygon id="XMLID_61_" style="fill:#485F66;" points="269.378,216.023 301.469,223.826 304.336,213.357 267.527,197.786 			"/>
			<path id="XMLID_60_" style="fill:#6D8189;" d="M297.473,218.284c0,3.208,2.601,5.809,5.809,5.809
				c3.208,0,5.809-2.601,5.809-5.809c0-3.208-2.601-5.809-5.809-5.809C300.074,212.475,297.473,215.076,297.473,218.284z"/>
			<path id="XMLID_52_" style="fill:#485F66;" d="M299.843,218.284c0,1.899,1.539,3.439,3.438,3.439c1.899,0,3.439-1.54,3.439-3.439
				c0-1.899-1.539-3.439-3.439-3.439C301.383,214.846,299.843,216.385,299.843,218.284z"/>
			<path id="XMLID_59_" style="fill:#6D8189;" d="M336.243,180.921l-3.511,3.714c-3.984,4.214-3.796,10.863,0.418,14.846
				c4.214,3.984,10.862,3.797,14.846-0.418l3.511-3.715l-4.004-3.785l-3.381,3.577c-1.896,2.006-5.051,2.094-7.057,0.198
				c-2.006-1.896-2.102-5.058-0.206-7.064l3.381-3.577L336.243,180.921z"/>
			
				<rect id="XMLID_58_" x="172.293" y="189.949" transform="matrix(0.5697 -0.8218 0.8218 0.5697 -94.1076 234.8449)" style="fill:#485F66;" width="9.882" height="34.701"/>
			<polygon id="XMLID_57_" style="fill:#485F66;" points="227.471,216.023 195.379,223.826 192.512,213.357 229.321,198.229 			"/>
			<path id="XMLID_100_" style="fill:#63797F;" d="M268.38,127.715v47.857c0,5.224-4.238,9.462-9.462,9.462h-20.135
				c-5.224,0-9.462-4.238-9.462-9.462V129.99c0-4.815,3.613-8.862,8.397-9.398l16.834-1.899l3.309-0.377
				C263.469,117.683,268.38,122.074,268.38,127.715z"/>
			<path id="XMLID_97_" style="fill:#6D8189;" d="M261.169,127.715v47.857c0,5.224-4.238,9.462-9.462,9.462h-12.924
				c-5.224,0-9.462-4.238-9.462-9.462V129.99c0-4.815,3.613-8.862,8.397-9.398l16.834-1.899
				C258.357,119.887,261.169,123.436,261.169,127.715z"/>
			<path id="XMLID_45_" style="fill:#485F66;" d="M255.828,189.908h-14.956c-0.516,0-0.935-0.419-0.935-0.935v-3.071
				c0-0.516,0.419-0.935,0.935-0.935h14.956c0.516,0,0.935,0.419,0.935,0.935v3.071
				C256.763,189.489,256.344,189.908,255.828,189.908z"/>
			<path id="XMLID_44_" style="fill:#395156;" d="M254.758,194.515h-12.817c-0.48,0-0.869-0.389-0.869-0.869v-3.202
				c0-0.48,0.389-0.869,0.869-0.869h12.817c0.48,0,0.87,0.389,0.87,0.869v3.202C255.628,194.126,255.238,194.515,254.758,194.515z"
				/>
			<path id="XMLID_43_" style="fill:#485F66;" d="M255.544,199.022h-14.389c-0.507,0-0.918-0.411-0.918-0.918v-3.105
				c0-0.507,0.411-0.918,0.918-0.918h14.389c0.507,0,0.918,0.411,0.918,0.918v3.105
				C256.462,198.611,256.051,199.022,255.544,199.022z"/>
			<path id="XMLID_112_" style="fill:#63797F;" d="M276.008,209.735l-1.915,40.534l-0.04,0.801l-1.122,23.7l-0.313,6.706
				l-0.497,10.456H225.98l-0.497-10.456l-0.313-6.706l-1.314-27.778l-0.04-0.801l-1.723-36.455
				c-0.32-6.674,4.447-12.283,10.44-12.283h33.034C271.561,197.453,276.329,203.061,276.008,209.735z"/>
			<path id="XMLID_113_" style="fill:#6D8189;" d="M265.993,209.735l-1.915,40.534l-0.04,0.801l-1.122,23.7l-0.313,6.706
				l-0.497,10.456H225.98l-0.497-10.456l-0.313-6.706l-1.314-27.778l-0.04-0.801l-1.723-36.455
				c-0.32-6.674,4.447-12.283,10.44-12.283h23.019C261.546,197.453,266.313,203.061,265.993,209.735z"/>
			<path id="XMLID_39_" style="fill:#6D8189;" d="M199.375,218.284c0,3.208-2.601,5.809-5.809,5.809
				c-3.208,0-5.809-2.601-5.809-5.809c0-3.208,2.601-5.809,5.809-5.809C196.775,212.475,199.375,215.076,199.375,218.284z"/>
			<circle id="XMLID_48_" style="fill:#485F66;" cx="193.567" cy="218.284" r="2.954"/>
			<path id="XMLID_38_" style="fill:#6D8189;" d="M160.605,180.921l3.511,3.714c3.984,4.214,3.796,10.863-0.418,14.846
				c-4.214,3.984-10.862,3.797-14.846-0.418l-3.511-3.715l4.004-3.785l3.381,3.577c1.896,2.006,5.051,2.094,7.057,0.198
				c2.006-1.896,2.102-5.058,0.206-7.064l-3.381-3.577L160.605,180.921z"/>
			<path id="XMLID_33_" style="fill:#FFC84D;" d="M250.136,96.85c0,1.023-0.83,1.853-1.853,1.853c-1.023,0-1.853-0.83-1.853-1.853
				c0-1.023,0.83-1.853,1.853-1.853C249.306,94.997,250.136,95.826,250.136,96.85z"/>
			<path id="XMLID_68_" style="fill:#485F66;" d="M261.47,168.008c-8.68-5.408-17.36,5.408-26.04,0c0-0.901,0-1.803,0-2.704
				c8.68,5.408,17.36-5.408,26.04,0C261.47,166.205,261.47,167.107,261.47,168.008z"/>
			<g id="XMLID_75_">
				
					<ellipse id="XMLID_72_" transform="matrix(0.7071 -0.7071 0.7071 0.7071 -34.2964 212.7553)" style="fill:#63797F;" cx="239.67" cy="147.777" rx="9.214" ry="9.214"/>
				
					<ellipse id="XMLID_74_" transform="matrix(0.2307 -0.973 0.973 0.2307 54.31 364.2438)" style="fill:#63797F;" cx="257.497" cy="147.777" rx="9.214" ry="9.214"/>
				<rect id="XMLID_73_" x="239.587" y="138.563" style="fill:#63797F;" width="18.303" height="18.416"/>
			</g>
			<rect id="XMLID_65_" x="237.734" y="142.97" style="fill:#F7BC14;" width="4.206" height="9.715"/>
			<rect id="XMLID_41_" x="238.184" y="143.721" style="fill:#FFC84D;" width="3.305" height="8.212"/>
			<rect id="XMLID_69_" x="256.062" y="142.97" style="fill:#F7BC14;" width="4.207" height="9.715"/>
			<g id="XMLID_49_">
				<polygon id="XMLID_70_" style="fill:#485F66;" points="233.687,141.457 232.426,139.765 242.782,131.363 244.882,135.008 				
					"/>
				<polygon id="XMLID_71_" style="fill:#485F66;" points="264.319,141.457 265.58,139.765 255.224,131.363 253.124,135.008 				"/>
			</g>
			<rect id="XMLID_76_" x="231.191" y="212.876" style="fill:#63797F;" width="35.12" height="22.034"/>
			<rect id="XMLID_54_" x="234.596" y="215.013" style="fill:#485F66;" width="28.309" height="17.76"/>
			<rect id="XMLID_138_" x="237.168" y="218.583" style="fill:#FFC84D;" width="23.165" height="1.119"/>
			<rect id="XMLID_140_" x="240.793" y="221.667" style="fill:#FFC84D;" width="15.915" height="1.119"/>
			<rect id="XMLID_141_" x="239.043" y="224.417" style="fill:#FFC84D;" width="19.415" height="1.119"/>
			<g id="XMLID_78_">
				<polygon id="XMLID_87_" style="fill:#485F66;" points="274.093,250.269 274.053,251.07 254.824,251.07 254.824,241.319 
					237.798,241.319 237.798,246.992 223.857,246.992 223.817,246.191 236.997,246.191 236.997,240.518 255.625,240.518 
					255.625,250.269 				"/>
			</g>
			<circle id="XMLID_42_" style="fill:#485F66;" cx="237.4" cy="246.394" r="1.469"/>
			<path id="XMLID_83_" style="fill:#485F66;" d="M238.401,240.785c0,0.553-0.448,1.002-1.001,1.002s-1.002-0.448-1.002-1.002
				c0-0.553,0.448-1.002,1.002-1.002S238.401,240.232,238.401,240.785z"/>
			<path id="XMLID_84_" style="fill:#485F66;" d="M256.229,240.785c0,0.553-0.448,1.002-1.002,1.002
				c-0.553,0-1.002-0.448-1.002-1.002c0-0.553,0.448-1.002,1.002-1.002C255.78,239.784,256.229,240.232,256.229,240.785z"/>
			<path id="XMLID_85_" style="fill:#485F66;" d="M256.229,250.4c0,0.553-0.448,1.001-1.002,1.001c-0.553,0-1.002-0.448-1.002-1.001
				s0.448-1.001,1.002-1.001C255.78,249.398,256.229,249.847,256.229,250.4z"/>
			<rect id="XMLID_50_" x="256.479" y="143.721" style="fill:#FFC84D;" width="3.305" height="8.212"/>
			<rect id="XMLID_46_" x="224.514" y="281.38" style="fill:#395156;" width="48.874" height="14.722"/>
			<rect id="XMLID_116_" x="224.514" y="281.38" style="fill:#485F66;" width="32.272" height="14.722"/>
			<polygon id="XMLID_106_" style="fill:#63797F;" points="272.931,274.77 272.619,281.477 225.483,281.477 225.171,274.77 			"/>
		</g>
		<path id="XMLID_110_" style="fill:none;stroke:#485F66;stroke-miterlimit:10;" d="M155.442,194.327
			c0.376-0.328,0.764-0.621,1.167-0.878c11.449-7.286,11.188,20.555,11.188,20.555"/>
		<g id="XMLID_79_">
			<g id="XMLID_101_">
				<rect id="XMLID_82_" x="165.415" y="218.201" style="fill:#485F66;" width="1.171" height="4.326"/>
				<g id="XMLID_90_">
					<rect id="XMLID_95_" x="169.416" y="218.201" style="fill:#485F66;" width="1.171" height="4.326"/>
				</g>
			</g>
			<path id="XMLID_120_" style="fill:#485F66;" d="M172.299,216.477v3.122h-8.587v-3.122c0-2.373,1.915-4.299,4.288-4.299
				c1.187,0,2.259,0.479,3.039,1.259c0.104,0.104,0.208,0.219,0.302,0.333C171.945,214.51,172.299,215.457,172.299,216.477z"/>
			<path id="XMLID_118_" style="fill:#6D8189;" d="M172.299,216.477v3.122h-7.358v-2.082c0-2.373,1.925-4.298,4.298-4.298
				c0.76,0,1.478,0.198,2.102,0.552C171.945,214.51,172.299,215.457,172.299,216.477z"/>
		</g>
		<path id="XMLID_122_" style="fill:none;stroke:#485F66;stroke-miterlimit:10;" d="M344.749,194.327
			c-0.376-0.328-0.764-0.621-1.167-0.878c-11.449-7.286-11.189,20.555-11.189,20.555"/>
		<g id="XMLID_111_">
			<path id="XMLID_115_" style="fill:#485F66;" d="M327.891,216.477v3.122h8.586v-3.122c0-2.373-1.915-4.299-4.288-4.299
				c-1.187,0-2.258,0.479-3.039,1.259c-0.104,0.104-0.208,0.219-0.302,0.333C328.245,214.51,327.891,215.457,327.891,216.477z"/>
			<path id="XMLID_114_" style="fill:#6D8189;" d="M327.891,216.477v3.122h7.358v-2.082c0-2.373-1.926-4.298-4.298-4.298
				c-0.76,0-1.478,0.198-2.102,0.552C328.245,214.51,327.891,215.457,327.891,216.477z"/>
		</g>
	</g>
	<rect id="XMLID_27_" x="134.814" y="394.38" style="fill:none;" width="230.563" height="20.035"/>
	<text id="XMLID_125_" transform="matrix(1 0 0 1 142.7358 406.8076)"><tspan x="0" y="0" style="fill:#485F66; font-family:'Montserrat-Bold'; font-size:16.7503px;">Error!</tspan><tspan x="48.709" y="0" style="fill:#485F66; font-family:'Montserrat-Regular'; font-size:16.7503px;"> Website not found!</tspan></text>
	<g id="XMLID_137_">
		<path id="XMLID_136_" style="fill:#395156;" d="M274.974,452.562h-49.758c-7.482,0-13.548-6.066-13.548-13.548v0
			c0-7.482,6.066-13.548,13.548-13.548h49.758c7.482,0,13.548,6.066,13.548,13.548v0
			C288.522,446.497,282.457,452.562,274.974,452.562z"/>
		<rect id="XMLID_22_" x="225.38" y="432.528" style="fill:none;" width="49.43" height="12.973"/>
		<text id="XMLID_135_" transform="matrix(1 0 0 1 225.3804 444.957)"><tspan x="0" y="0" style="fill:#CFF9FF; font-family:'Montserrat-Bold'; font-size:16.7503px; letter-spacing:5;">ba</tspan><tspan x="37.153" y="0" style="fill:#CFF9FF; font-family:'Montserrat-Bold'; font-size:16.7503px;">c</tspan></text>
	</g>
	<polygon id="XMLID_139_" style="fill:#FFC84D;" points="164.003,237.43 162.96,237.502 162.762,235.208 161.711,238.605 
		162.755,238.533 162.952,240.827 	"/>
	<polygon id="XMLID_143_" style="fill:#FFC84D;" points="182.516,226.963 181.488,228.169 178.796,225.953 181.36,230.688 
		182.388,229.483 185.081,231.699 	"/>
	<polygon id="XMLID_144_" style="fill:#FFC84D;" points="178.099,238.334 176.372,239.292 174.197,235.53 175.123,242.178 
		176.849,241.219 179.025,244.981 	"/>
	<polygon id="XMLID_147_" style="fill:#FFC84D;" points="322.637,225.151 321.75,224.598 322.933,222.623 320.092,224.761 
		320.98,225.314 319.797,227.288 	"/>
	<polygon id="XMLID_146_" style="fill:#FFC84D;" points="343.774,227.508 342.235,227.883 341.35,224.51 340.655,229.85 
		342.194,229.475 343.079,232.848 	"/>
	<polygon id="XMLID_145_" style="fill:#FFC84D;" points="333.534,234.138 331.574,233.904 332.013,229.58 328.871,235.511 
		330.831,235.745 330.392,240.069 	"/>
</g>
<g id="DESIGNED_BY_FREEPIK">
	<g>
		<g>
			<path style="fill:#B3EFF4;" d="M180.474,479.854v-0.161c-0.218,0.249-0.432,0.452-0.644,0.608
				c-0.212,0.157-0.441,0.276-0.689,0.357c-0.247,0.082-0.517,0.122-0.81,0.122c-0.388,0-0.747-0.082-1.078-0.246
				c-0.33-0.164-0.616-0.399-0.857-0.704c-0.242-0.305-0.425-0.662-0.549-1.074c-0.124-0.412-0.187-0.857-0.187-1.335
				c0-1.013,0.247-1.804,0.742-2.369c0.495-0.565,1.146-0.848,1.953-0.848c0.467,0,0.861,0.081,1.181,0.24
				c0.321,0.161,0.633,0.408,0.938,0.739v-2.392c0-0.333,0.066-0.583,0.199-0.754c0.132-0.17,0.321-0.255,0.567-0.255
				c0.245,0,0.434,0.078,0.567,0.234c0.133,0.157,0.199,0.386,0.199,0.691v7.147c0,0.309-0.071,0.54-0.214,0.694
				c-0.143,0.154-0.326,0.231-0.552,0.231c-0.222,0-0.405-0.08-0.549-0.24C180.546,480.379,180.474,480.15,180.474,479.854z
				 M177.286,477.473c0,0.439,0.068,0.813,0.205,1.122c0.137,0.309,0.324,0.541,0.561,0.697c0.238,0.157,0.497,0.236,0.778,0.236
				c0.285,0,0.545-0.075,0.781-0.223c0.235-0.148,0.423-0.376,0.564-0.682c0.141-0.307,0.211-0.691,0.211-1.149
				c0-0.432-0.07-0.803-0.211-1.114c-0.14-0.31-0.33-0.548-0.57-0.712c-0.24-0.164-0.502-0.245-0.786-0.245
				c-0.297,0-0.562,0.084-0.796,0.252c-0.233,0.168-0.414,0.409-0.543,0.724C177.35,476.693,177.286,477.058,177.286,477.473z"/>
			<path style="fill:#B3EFF4;" d="M187.62,477.883h-3.169c0.004,0.367,0.078,0.692,0.223,0.973c0.144,0.281,0.336,0.493,0.576,0.635
				c0.24,0.143,0.504,0.213,0.793,0.213c0.194,0,0.371-0.022,0.531-0.067c0.161-0.046,0.316-0.117,0.466-0.214
				c0.151-0.096,0.289-0.201,0.415-0.312c0.126-0.111,0.29-0.262,0.493-0.452c0.083-0.071,0.202-0.107,0.357-0.107
				c0.166,0,0.3,0.046,0.403,0.137c0.103,0.092,0.155,0.219,0.155,0.386c0,0.147-0.058,0.317-0.172,0.513
				c-0.116,0.196-0.289,0.384-0.52,0.564c-0.232,0.18-0.522,0.329-0.873,0.448c-0.35,0.119-0.753,0.178-1.208,0.178
				c-1.04,0-1.85-0.297-2.428-0.891c-0.578-0.593-0.866-1.399-0.866-2.416c0-0.479,0.071-0.923,0.213-1.332
				c0.143-0.41,0.351-0.761,0.623-1.054c0.273-0.293,0.609-0.517,1.01-0.674c0.4-0.156,0.843-0.234,1.33-0.234
				c0.633,0,1.176,0.133,1.629,0.4c0.454,0.267,0.793,0.612,1.019,1.035c0.225,0.424,0.339,0.856,0.339,1.294
				c0,0.408-0.117,0.672-0.35,0.794C188.373,477.822,188.044,477.883,187.62,477.883z M184.451,476.963h2.938
				c-0.039-0.554-0.189-0.969-0.448-1.244c-0.259-0.275-0.6-0.413-1.024-0.413c-0.404,0-0.735,0.139-0.994,0.418
				C184.663,476.004,184.506,476.417,184.451,476.963z"/>
			<path style="fill:#B3EFF4;" d="M195.005,478.66c0,0.447-0.108,0.831-0.327,1.149c-0.217,0.319-0.539,0.56-0.965,0.724
				c-0.425,0.164-0.943,0.246-1.552,0.246c-0.582,0-1.08-0.089-1.496-0.267c-0.415-0.178-0.722-0.401-0.92-0.667
				c-0.198-0.268-0.297-0.535-0.297-0.805c0-0.178,0.063-0.33,0.19-0.457c0.126-0.126,0.287-0.19,0.481-0.19
				c0.17,0,0.3,0.042,0.391,0.124c0.091,0.083,0.178,0.2,0.261,0.35c0.166,0.29,0.366,0.504,0.597,0.648
				c0.231,0.142,0.547,0.214,0.947,0.214c0.324,0,0.59-0.073,0.798-0.217c0.207-0.145,0.311-0.31,0.311-0.496
				c0-0.285-0.107-0.492-0.324-0.622c-0.216-0.131-0.571-0.256-1.066-0.375c-0.558-0.138-1.012-0.284-1.362-0.436
				c-0.35-0.151-0.63-0.353-0.84-0.602c-0.21-0.25-0.315-0.557-0.315-0.92c0-0.324,0.097-0.631,0.291-0.92
				c0.194-0.288,0.48-0.519,0.859-0.691c0.377-0.173,0.833-0.259,1.367-0.259c0.42,0,0.797,0.043,1.131,0.131
				c0.335,0.086,0.614,0.204,0.837,0.35c0.224,0.146,0.394,0.308,0.51,0.486c0.117,0.178,0.175,0.352,0.175,0.523
				c0,0.186-0.062,0.338-0.187,0.457c-0.124,0.118-0.301,0.178-0.532,0.178c-0.166,0-0.308-0.048-0.424-0.143
				c-0.117-0.095-0.25-0.237-0.401-0.427c-0.123-0.158-0.266-0.285-0.433-0.38c-0.166-0.095-0.392-0.142-0.677-0.142
				c-0.293,0-0.536,0.062-0.73,0.187c-0.194,0.124-0.291,0.279-0.291,0.465c0,0.171,0.071,0.31,0.213,0.419
				c0.143,0.109,0.334,0.2,0.576,0.27c0.242,0.071,0.573,0.158,0.997,0.261c0.502,0.123,0.913,0.27,1.232,0.439
				c0.318,0.17,0.56,0.371,0.725,0.603C194.923,478.099,195.005,478.363,195.005,478.66z"/>
			<path style="fill:#B3EFF4;" d="M196.66,473.437c-0.225,0-0.418-0.07-0.579-0.208c-0.16-0.138-0.24-0.334-0.24-0.588
				c0-0.23,0.082-0.418,0.246-0.567c0.164-0.149,0.355-0.223,0.573-0.223c0.21,0,0.396,0.067,0.558,0.202
				c0.162,0.135,0.244,0.33,0.244,0.588c0,0.25-0.08,0.444-0.238,0.585C197.066,473.366,196.878,473.437,196.66,473.437z
				 M197.462,475.111v4.683c0,0.325-0.077,0.571-0.232,0.737c-0.155,0.166-0.35,0.249-0.588,0.249c-0.238,0-0.431-0.085-0.579-0.255
				c-0.149-0.17-0.222-0.414-0.222-0.73v-4.636c0-0.32,0.074-0.561,0.222-0.724c0.148-0.162,0.341-0.243,0.579-0.243
				c0.238,0,0.433,0.081,0.588,0.243C197.385,474.596,197.462,474.822,197.462,475.111z"/>
			<path style="fill:#B3EFF4;" d="M204.561,475.378v4.707c0,0.538-0.058,1.001-0.173,1.39c-0.114,0.387-0.298,0.708-0.552,0.961
				c-0.253,0.253-0.585,0.441-0.994,0.563c-0.41,0.123-0.919,0.184-1.529,0.184c-0.558,0-1.056-0.078-1.496-0.234
				c-0.439-0.157-0.777-0.358-1.015-0.605c-0.237-0.247-0.356-0.502-0.356-0.763c0-0.198,0.067-0.359,0.202-0.483
				c0.134-0.125,0.297-0.187,0.486-0.187c0.237,0,0.445,0.105,0.623,0.314c0.087,0.107,0.177,0.216,0.27,0.324
				c0.093,0.109,0.197,0.202,0.309,0.279c0.113,0.076,0.249,0.134,0.407,0.172c0.158,0.037,0.341,0.056,0.546,0.056
				c0.42,0,0.745-0.058,0.977-0.175c0.232-0.117,0.394-0.28,0.487-0.49c0.093-0.209,0.147-0.433,0.163-0.673
				c0.016-0.24,0.027-0.624,0.035-1.155c-0.25,0.349-0.537,0.615-0.864,0.797c-0.326,0.182-0.715,0.273-1.166,0.273
				c-0.542,0-1.016-0.138-1.422-0.416c-0.405-0.277-0.717-0.665-0.935-1.163c-0.218-0.499-0.326-1.074-0.326-1.727
				c0-0.487,0.066-0.927,0.198-1.318c0.133-0.393,0.322-0.723,0.567-0.992c0.245-0.269,0.528-0.472,0.849-0.609
				c0.32-0.136,0.673-0.204,1.057-0.204c0.459,0,0.857,0.089,1.193,0.264c0.336,0.177,0.649,0.453,0.938,0.829v-0.22
				c0-0.281,0.069-0.498,0.208-0.653c0.139-0.154,0.317-0.231,0.535-0.231c0.313,0,0.52,0.103,0.623,0.306
				C204.509,474.7,204.561,474.994,204.561,475.378z M199.865,477.432c0,0.657,0.143,1.154,0.43,1.49
				c0.287,0.337,0.658,0.505,1.113,0.505c0.269,0,0.523-0.073,0.762-0.217c0.24-0.145,0.435-0.362,0.585-0.653
				c0.15-0.291,0.225-0.644,0.225-1.06c0-0.66-0.145-1.176-0.436-1.543c-0.291-0.368-0.674-0.552-1.149-0.552
				c-0.463,0-0.834,0.176-1.113,0.529C200.005,476.282,199.865,476.783,199.865,477.432z"/>
			<path style="fill:#B3EFF4;" d="M207.136,475.087v0.196c0.285-0.376,0.596-0.652,0.935-0.828c0.338-0.176,0.727-0.264,1.166-0.264
				c0.428,0,0.809,0.093,1.146,0.28c0.336,0.186,0.588,0.449,0.753,0.789c0.108,0.198,0.176,0.413,0.208,0.642
				c0.032,0.23,0.048,0.522,0.048,0.879v3.015c0,0.325-0.074,0.571-0.223,0.737c-0.148,0.166-0.341,0.249-0.579,0.249
				c-0.242,0-0.437-0.085-0.588-0.255c-0.151-0.17-0.225-0.414-0.225-0.73v-2.701c0-0.534-0.075-0.943-0.223-1.226
				c-0.149-0.283-0.444-0.425-0.888-0.425c-0.288,0-0.552,0.086-0.789,0.258c-0.237,0.173-0.412,0.41-0.522,0.71
				c-0.079,0.242-0.119,0.692-0.119,1.353v2.03c0,0.328-0.077,0.575-0.228,0.74c-0.152,0.164-0.349,0.246-0.591,0.246
				c-0.234,0-0.425-0.085-0.576-0.255c-0.15-0.17-0.225-0.414-0.225-0.73v-4.683c0-0.309,0.067-0.54,0.202-0.692
				c0.135-0.152,0.319-0.228,0.552-0.228c0.143,0,0.272,0.034,0.387,0.101c0.114,0.068,0.207,0.168,0.276,0.302
				C207.102,474.728,207.136,474.893,207.136,475.087z"/>
			<path style="fill:#B3EFF4;" d="M216.996,477.883h-3.17c0.004,0.367,0.078,0.692,0.223,0.973c0.144,0.281,0.336,0.493,0.576,0.635
				c0.239,0.143,0.503,0.213,0.792,0.213c0.194,0,0.371-0.022,0.532-0.067c0.16-0.046,0.315-0.117,0.466-0.214
				c0.15-0.096,0.288-0.201,0.416-0.312c0.126-0.111,0.29-0.262,0.492-0.452c0.083-0.071,0.202-0.107,0.356-0.107
				c0.166,0,0.301,0.046,0.404,0.137c0.103,0.092,0.154,0.219,0.154,0.386c0,0.147-0.057,0.317-0.172,0.513
				c-0.115,0.196-0.288,0.384-0.52,0.564c-0.232,0.18-0.522,0.329-0.872,0.448c-0.35,0.119-0.753,0.178-1.208,0.178
				c-1.041,0-1.85-0.297-2.428-0.891c-0.577-0.593-0.866-1.399-0.866-2.416c0-0.479,0.071-0.923,0.214-1.332
				c0.143-0.41,0.351-0.761,0.624-1.054c0.273-0.293,0.609-0.517,1.009-0.674c0.399-0.156,0.843-0.234,1.33-0.234
				c0.633,0,1.175,0.133,1.629,0.4c0.454,0.267,0.793,0.612,1.019,1.035c0.225,0.424,0.338,0.856,0.338,1.294
				c0,0.408-0.117,0.672-0.35,0.794C217.748,477.822,217.419,477.883,216.996,477.883z M213.826,476.963h2.938
				c-0.039-0.554-0.189-0.969-0.448-1.244c-0.259-0.275-0.6-0.413-1.024-0.413c-0.404,0-0.736,0.139-0.995,0.418
				C214.038,476.004,213.882,476.417,213.826,476.963z"/>
			<path style="fill:#B3EFF4;" d="M223.602,479.854v-0.161c-0.218,0.249-0.432,0.452-0.644,0.608
				c-0.212,0.157-0.441,0.276-0.689,0.357c-0.247,0.082-0.517,0.122-0.81,0.122c-0.389,0-0.747-0.082-1.078-0.246
				c-0.331-0.164-0.616-0.399-0.858-0.704c-0.242-0.305-0.424-0.662-0.549-1.074c-0.125-0.412-0.187-0.857-0.187-1.335
				c0-1.013,0.247-1.804,0.742-2.369c0.495-0.565,1.146-0.848,1.953-0.848c0.467,0,0.861,0.081,1.181,0.24
				c0.321,0.161,0.633,0.408,0.938,0.739v-2.392c0-0.333,0.067-0.583,0.199-0.754c0.132-0.17,0.322-0.255,0.567-0.255
				c0.245,0,0.434,0.078,0.567,0.234c0.132,0.157,0.199,0.386,0.199,0.691v7.147c0,0.309-0.071,0.54-0.214,0.694
				c-0.143,0.154-0.326,0.231-0.552,0.231c-0.222,0-0.405-0.08-0.549-0.24C223.674,480.379,223.602,480.15,223.602,479.854z
				 M220.414,477.473c0,0.439,0.068,0.813,0.204,1.122c0.136,0.309,0.324,0.541,0.561,0.697c0.237,0.157,0.496,0.236,0.777,0.236
				c0.285,0,0.546-0.075,0.781-0.223c0.236-0.148,0.424-0.376,0.564-0.682c0.141-0.307,0.211-0.691,0.211-1.149
				c0-0.432-0.07-0.803-0.211-1.114c-0.14-0.31-0.33-0.548-0.57-0.712c-0.24-0.164-0.502-0.245-0.787-0.245
				c-0.296,0-0.562,0.084-0.795,0.252c-0.233,0.168-0.414,0.409-0.543,0.724C220.478,476.693,220.414,477.058,220.414,477.473z"/>
			<path style="fill:#B3EFF4;" d="M230.226,472.706v2.475c0.305-0.316,0.615-0.559,0.932-0.727c0.316-0.168,0.709-0.252,1.175-0.252
				c0.538,0,1.01,0.128,1.416,0.382c0.405,0.256,0.72,0.626,0.944,1.111c0.223,0.484,0.336,1.06,0.336,1.725
				c0,0.491-0.063,0.94-0.187,1.35c-0.125,0.41-0.306,0.765-0.543,1.065c-0.238,0.301-0.526,0.534-0.864,0.698
				c-0.339,0.164-0.712,0.246-1.119,0.246c-0.25,0-0.484-0.029-0.703-0.089c-0.22-0.059-0.407-0.137-0.561-0.234
				c-0.154-0.096-0.286-0.197-0.395-0.3c-0.109-0.103-0.253-0.258-0.431-0.463v0.161c0,0.305-0.073,0.535-0.22,0.692
				c-0.146,0.156-0.332,0.234-0.558,0.234c-0.23,0-0.413-0.078-0.549-0.234c-0.137-0.157-0.205-0.388-0.205-0.692v-7.077
				c0-0.328,0.066-0.577,0.198-0.745c0.133-0.168,0.318-0.252,0.555-0.252c0.25,0,0.441,0.08,0.576,0.24
				C230.158,472.181,230.226,472.409,230.226,472.706z M230.303,477.521c0,0.645,0.148,1.14,0.442,1.486
				c0.295,0.347,0.682,0.521,1.161,0.521c0.407,0,0.759-0.177,1.053-0.532c0.295-0.355,0.442-0.862,0.442-1.523
				c0-0.427-0.061-0.796-0.184-1.104c-0.123-0.309-0.297-0.548-0.522-0.715c-0.226-0.168-0.489-0.252-0.79-0.252
				c-0.309,0-0.584,0.084-0.825,0.252c-0.241,0.168-0.431,0.411-0.57,0.73C230.372,476.702,230.303,477.081,230.303,477.521z"/>
			<path style="fill:#B3EFF4;" d="M237.129,480.982l0.148-0.363l-1.995-5.022c-0.122-0.288-0.184-0.499-0.184-0.629
				c0-0.139,0.036-0.267,0.107-0.385c0.071-0.119,0.169-0.214,0.293-0.285c0.125-0.072,0.255-0.107,0.389-0.107
				c0.233,0,0.409,0.075,0.529,0.223c0.119,0.148,0.223,0.361,0.314,0.638l1.371,3.989l1.3-3.71c0.103-0.3,0.196-0.536,0.279-0.706
				c0.083-0.17,0.171-0.285,0.264-0.344c0.093-0.06,0.225-0.09,0.395-0.09c0.123,0,0.24,0.032,0.353,0.098
				c0.113,0.065,0.2,0.153,0.261,0.264c0.061,0.111,0.092,0.227,0.092,0.35c-0.017,0.075-0.042,0.182-0.077,0.321
				c-0.036,0.138-0.079,0.279-0.13,0.421l-2.113,5.533c-0.182,0.487-0.361,0.868-0.535,1.145c-0.174,0.277-0.404,0.491-0.691,0.638
				c-0.287,0.149-0.674,0.223-1.161,0.223c-0.475,0-0.831-0.051-1.068-0.154c-0.238-0.104-0.356-0.292-0.356-0.565
				c0-0.186,0.056-0.33,0.169-0.43c0.112-0.101,0.28-0.152,0.501-0.152c0.087,0,0.173,0.012,0.256,0.037
				c0.103,0.023,0.192,0.035,0.267,0.035c0.186,0,0.333-0.027,0.44-0.084c0.106-0.055,0.202-0.151,0.288-0.288
				C236.92,481.448,237.018,481.246,237.129,480.982z"/>
		</g>
		<g>
			<path style="fill:#B3EFF4;" d="M260.606,474.331h0.386v-0.487c0-0.509,0.062-0.911,0.192-1.211
				c0.128-0.299,0.347-0.516,0.654-0.653c0.306-0.135,0.727-0.204,1.26-0.204c0.95,0,1.42,0.229,1.42,0.696
				c0,0.149-0.049,0.278-0.15,0.385c-0.096,0.106-0.214,0.16-0.349,0.16c-0.062,0-0.174-0.012-0.329-0.037
				c-0.148-0.021-0.283-0.035-0.389-0.035c-0.292,0-0.479,0.088-0.566,0.259c-0.079,0.172-0.122,0.418-0.122,0.74v0.386h0.396
				c0.619,0,0.926,0.186,0.926,0.56c0,0.262-0.079,0.432-0.245,0.503c-0.163,0.071-0.39,0.107-0.68,0.107h-0.396v4.294
				c0,0.319-0.075,0.563-0.231,0.73c-0.151,0.17-0.346,0.254-0.589,0.254c-0.229,0-0.419-0.084-0.574-0.254
				c-0.153-0.167-0.228-0.411-0.228-0.73V475.5h-0.446c-0.243,0-0.427-0.052-0.558-0.164c-0.131-0.107-0.197-0.25-0.197-0.423
				C259.791,474.523,260.063,474.331,260.606,474.331"/>
			<path style="fill:#B3EFF4;" d="M265.912,478.44v1.355c0,0.327-0.083,0.574-0.234,0.737c-0.155,0.166-0.349,0.247-0.586,0.247
				c-0.239,0-0.43-0.082-0.579-0.25c-0.148-0.165-0.225-0.41-0.225-0.734v-4.514c0-0.729,0.262-1.093,0.788-1.093
				c0.271,0,0.465,0.084,0.583,0.255c0.118,0.171,0.184,0.421,0.198,0.755c0.192-0.334,0.39-0.584,0.593-0.755
				c0.208-0.171,0.477-0.255,0.818-0.255c0.343,0,0.67,0.084,0.991,0.255c0.322,0.171,0.482,0.398,0.482,0.678
				c0,0.197-0.069,0.363-0.204,0.488c-0.137,0.131-0.284,0.195-0.441,0.195c-0.062,0-0.207-0.039-0.433-0.112
				c-0.228-0.071-0.43-0.108-0.602-0.108c-0.237,0-0.433,0.064-0.582,0.186c-0.151,0.128-0.269,0.311-0.353,0.554
				c-0.081,0.247-0.137,0.541-0.17,0.878C265.926,477.54,265.912,477.953,265.912,478.44"/>
			<path style="fill:#B3EFF4;" d="M273.362,477.882h-3.171c0.005,0.367,0.077,0.694,0.222,0.974
				c0.147,0.279,0.337,0.491,0.578,0.635c0.24,0.142,0.502,0.212,0.793,0.212c0.194,0,0.371-0.021,0.531-0.07
				c0.159-0.043,0.316-0.116,0.466-0.213c0.151-0.095,0.288-0.199,0.415-0.313c0.126-0.109,0.292-0.26,0.494-0.449
				c0.084-0.071,0.203-0.109,0.355-0.109c0.168,0,0.301,0.046,0.406,0.139c0.104,0.092,0.152,0.219,0.152,0.386
				c0,0.147-0.056,0.317-0.167,0.512c-0.117,0.198-0.289,0.385-0.522,0.566c-0.234,0.178-0.524,0.329-0.873,0.446
				c-0.35,0.119-0.754,0.179-1.207,0.179c-1.044,0-1.852-0.296-2.429-0.889c-0.577-0.595-0.87-1.401-0.87-2.418
				c0-0.479,0.073-0.924,0.217-1.334c0.14-0.411,0.348-0.76,0.624-1.055c0.272-0.294,0.606-0.518,1.008-0.674
				c0.399-0.156,0.842-0.234,1.33-0.234c0.632,0,1.175,0.134,1.629,0.404c0.452,0.264,0.796,0.61,1.018,1.034
				c0.226,0.425,0.339,0.855,0.339,1.296c0,0.405-0.118,0.669-0.351,0.791C274.114,477.821,273.786,477.882,273.362,477.882
				 M270.191,476.96h2.938c-0.039-0.553-0.186-0.969-0.446-1.241c-0.261-0.277-0.599-0.413-1.025-0.413
				c-0.403,0-0.736,0.137-0.995,0.418C270.404,476.003,270.245,476.414,270.191,476.96"/>
			<path style="fill:#B3EFF4;" d="M280.104,477.882h-3.171c0.004,0.367,0.078,0.694,0.221,0.974
				c0.145,0.279,0.337,0.491,0.576,0.635c0.239,0.142,0.504,0.212,0.795,0.212c0.192,0,0.37-0.021,0.528-0.07
				c0.162-0.043,0.316-0.116,0.469-0.213c0.151-0.095,0.287-0.199,0.415-0.313c0.124-0.109,0.29-0.26,0.493-0.449
				c0.084-0.071,0.204-0.109,0.355-0.109c0.168,0,0.302,0.046,0.406,0.139c0.103,0.092,0.15,0.219,0.15,0.386
				c0,0.147-0.054,0.317-0.171,0.512c-0.111,0.198-0.284,0.385-0.519,0.566c-0.231,0.178-0.525,0.329-0.872,0.446
				c-0.349,0.119-0.755,0.179-1.209,0.179c-1.042,0-1.849-0.296-2.429-0.889c-0.577-0.595-0.868-1.401-0.868-2.418
				c0-0.479,0.073-0.924,0.217-1.334c0.142-0.411,0.349-0.76,0.623-1.055c0.272-0.294,0.608-0.518,1.009-0.674
				c0.398-0.156,0.844-0.234,1.331-0.234c0.63,0,1.174,0.134,1.633,0.404c0.45,0.264,0.791,0.61,1.013,1.034
				c0.225,0.425,0.341,0.855,0.341,1.296c0,0.405-0.12,0.669-0.351,0.791C280.854,477.821,280.527,477.882,280.104,477.882
				 M276.934,476.96h2.938c-0.04-0.553-0.19-0.969-0.447-1.241c-0.263-0.277-0.601-0.413-1.027-0.413
				c-0.403,0-0.735,0.137-0.995,0.418C277.145,476.003,276.986,476.414,276.934,476.96"/>
			<path style="fill:#B3EFF4;" d="M283.654,475.099v0.194c0.304-0.375,0.621-0.651,0.953-0.828c0.324-0.178,0.699-0.267,1.114-0.267
				c0.497,0,0.96,0.13,1.379,0.386c0.419,0.259,0.749,0.635,0.993,1.129c0.244,0.497,0.366,1.081,0.366,1.758
				c0,0.498-0.07,0.957-0.21,1.376c-0.14,0.417-0.336,0.767-0.58,1.05c-0.246,0.281-0.535,0.501-0.869,0.654
				c-0.339,0.151-0.695,0.227-1.08,0.227c-0.461,0-0.853-0.093-1.166-0.28c-0.314-0.182-0.614-0.458-0.901-0.816v2.433
				c0,0.71-0.26,1.069-0.778,1.069c-0.306,0-0.505-0.092-0.607-0.275c-0.095-0.187-0.146-0.452-0.146-0.807v-6.996
				c0-0.309,0.066-0.537,0.2-0.692c0.134-0.15,0.32-0.228,0.553-0.228c0.231,0,0.416,0.078,0.56,0.234
				C283.583,474.58,283.654,474.802,283.654,475.099 M286.832,477.454c0-0.428-0.067-0.796-0.197-1.102
				c-0.131-0.308-0.312-0.542-0.541-0.705c-0.229-0.164-0.489-0.248-0.77-0.248c-0.446,0-0.824,0.178-1.13,0.527
				c-0.308,0.354-0.462,0.872-0.462,1.558c0,0.642,0.153,1.146,0.46,1.504c0.305,0.358,0.679,0.536,1.133,0.536
				c0.268,0,0.519-0.079,0.748-0.233c0.232-0.158,0.416-0.392,0.552-0.704C286.762,478.275,286.832,477.896,286.832,477.454"/>
			<path style="fill:#B3EFF4;" d="M290.091,473.433c-0.226,0-0.418-0.071-0.577-0.209c-0.162-0.139-0.242-0.333-0.242-0.585
				c0-0.23,0.082-0.419,0.248-0.569c0.164-0.147,0.354-0.222,0.571-0.222c0.212,0,0.397,0.067,0.559,0.2
				c0.162,0.137,0.244,0.334,0.244,0.591c0,0.25-0.079,0.444-0.236,0.585C290.499,473.361,290.311,473.433,290.091,473.433
				 M290.894,475.107v4.689c0,0.322-0.078,0.568-0.231,0.732c-0.156,0.168-0.35,0.25-0.588,0.25c-0.238,0-0.428-0.084-0.58-0.254
				c-0.146-0.173-0.222-0.416-0.222-0.729v-4.642c0-0.319,0.076-0.559,0.222-0.722c0.152-0.165,0.342-0.245,0.58-0.245
				c0.238,0,0.432,0.079,0.588,0.245C290.817,474.594,290.894,474.821,290.894,475.107"/>
			<path style="fill:#B3EFF4;" d="M296.119,480.039l-1.428-2.354l-0.88,0.83v1.291c0,0.312-0.083,0.551-0.248,0.718
				c-0.161,0.17-0.354,0.254-0.566,0.254c-0.249,0-0.447-0.082-0.588-0.25c-0.142-0.165-0.215-0.41-0.215-0.734v-6.915
				c0-0.358,0.071-0.632,0.207-0.821c0.139-0.19,0.341-0.283,0.596-0.283c0.25,0,0.445,0.085,0.593,0.257
				c0.146,0.169,0.221,0.421,0.221,0.751v3.933l1.822-1.914c0.227-0.235,0.396-0.4,0.517-0.486c0.118-0.087,0.262-0.13,0.431-0.13
				c0.204,0,0.371,0.065,0.51,0.193c0.132,0.129,0.2,0.291,0.2,0.483c0,0.237-0.221,0.556-0.659,0.951l-0.861,0.789l1.662,2.614
				c0.121,0.196,0.212,0.34,0.265,0.441c0.052,0.099,0.081,0.2,0.081,0.289c0,0.258-0.071,0.459-0.213,0.61
				c-0.14,0.148-0.327,0.221-0.554,0.221c-0.198,0-0.352-0.051-0.458-0.16C296.448,480.51,296.3,480.316,296.119,480.039"/>
			<path style="fill:#B3EFF4;" d="M299.641,480.778c-0.245,0-0.455-0.079-0.634-0.238c-0.178-0.156-0.268-0.378-0.268-0.665
				c0-0.241,0.086-0.449,0.256-0.622c0.171-0.174,0.38-0.262,0.63-0.262c0.248,0,0.46,0.087,0.639,0.258
				c0.174,0.172,0.264,0.383,0.264,0.626c0,0.283-0.089,0.505-0.264,0.662C300.085,480.7,299.878,480.778,299.641,480.778"/>
			<path style="fill:#B3EFF4;" d="M307.703,478.772c0,0.2-0.06,0.418-0.182,0.646c-0.12,0.231-0.305,0.449-0.553,0.656
				c-0.247,0.208-0.557,0.377-0.935,0.502c-0.375,0.126-0.8,0.192-1.269,0.192c-1.004,0-1.786-0.293-2.349-0.876
				c-0.56-0.585-0.841-1.368-0.841-2.35c0-0.667,0.128-1.254,0.387-1.765c0.254-0.509,0.628-0.905,1.113-1.184
				c0.487-0.28,1.072-0.419,1.746-0.419c0.421,0,0.805,0.061,1.158,0.184c0.35,0.122,0.645,0.282,0.891,0.474
				c0.242,0.197,0.428,0.402,0.556,0.62c0.129,0.22,0.192,0.426,0.192,0.617c0,0.192-0.071,0.357-0.214,0.492
				c-0.147,0.134-0.322,0.203-0.524,0.203c-0.137,0-0.249-0.035-0.338-0.104c-0.09-0.07-0.19-0.181-0.299-0.339
				c-0.198-0.299-0.404-0.526-0.622-0.674c-0.214-0.152-0.488-0.226-0.821-0.226c-0.476,0-0.865,0.186-1.159,0.561
				c-0.292,0.372-0.439,0.888-0.439,1.534c0,0.305,0.039,0.587,0.114,0.842c0.073,0.255,0.182,0.472,0.325,0.652
				c0.144,0.179,0.315,0.316,0.516,0.409c0.203,0.096,0.425,0.141,0.665,0.141c0.326,0,0.604-0.075,0.836-0.225
				c0.235-0.151,0.439-0.38,0.616-0.689c0.099-0.182,0.204-0.324,0.318-0.427c0.114-0.102,0.256-0.156,0.422-0.156
				c0.198,0,0.363,0.077,0.491,0.227C307.636,478.441,307.703,478.603,307.703,478.772"/>
			<path style="fill:#B3EFF4;" d="M314.697,477.484c0,0.481-0.076,0.928-0.222,1.337c-0.154,0.408-0.37,0.758-0.656,1.049
				c-0.285,0.293-0.626,0.518-1.02,0.675c-0.4,0.154-0.844,0.234-1.337,0.234c-0.491,0-0.933-0.08-1.326-0.239
				c-0.389-0.156-0.732-0.384-1.016-0.676c-0.288-0.298-0.505-0.646-0.657-1.048c-0.143-0.402-0.219-0.846-0.219-1.332
				c0-0.491,0.078-0.941,0.224-1.349c0.151-0.409,0.368-0.758,0.649-1.046c0.282-0.289,0.621-0.511,1.019-0.669
				c0.402-0.156,0.844-0.234,1.326-0.234c0.49,0,0.936,0.078,1.337,0.239c0.398,0.157,0.739,0.384,1.027,0.674
				c0.286,0.297,0.502,0.643,0.65,1.045C314.622,476.552,314.697,476.995,314.697,477.484 M313.069,477.484
				c0-0.662-0.146-1.176-0.436-1.543c-0.289-0.372-0.681-0.555-1.171-0.555c-0.317,0-0.597,0.082-0.839,0.246
				c-0.242,0.163-0.425,0.406-0.556,0.727c-0.131,0.321-0.197,0.696-0.197,1.124c0,0.424,0.064,0.792,0.194,1.108
				c0.13,0.319,0.314,0.561,0.553,0.729c0.241,0.167,0.522,0.253,0.845,0.253c0.49,0,0.882-0.185,1.171-0.557
				C312.923,478.648,313.069,478.135,313.069,477.484"/>
			<path style="fill:#B3EFF4;" d="M320.879,477.603v2.154c0,0.342-0.075,0.595-0.231,0.767c-0.156,0.17-0.357,0.255-0.611,0.255
				c-0.245,0-0.446-0.085-0.595-0.255c-0.154-0.173-0.233-0.425-0.233-0.767v-2.582c0-0.408-0.013-0.726-0.04-0.953
				c-0.029-0.221-0.105-0.41-0.226-0.552c-0.123-0.147-0.318-0.22-0.582-0.22c-0.532,0-0.88,0.181-1.048,0.551
				c-0.167,0.36-0.254,0.883-0.254,1.567v2.189c0,0.336-0.076,0.591-0.226,0.765c-0.156,0.171-0.355,0.258-0.603,0.258
				c-0.247,0-0.448-0.087-0.604-0.258c-0.157-0.173-0.235-0.428-0.235-0.765v-4.637c0-0.306,0.07-0.538,0.209-0.695
				c0.143-0.161,0.329-0.239,0.556-0.239c0.223,0,0.407,0.077,0.557,0.222c0.148,0.149,0.221,0.354,0.221,0.615v0.153
				c0.283-0.334,0.584-0.582,0.903-0.738c0.323-0.162,0.676-0.241,1.07-0.241c0.407,0,0.757,0.082,1.049,0.244
				c0.294,0.163,0.533,0.41,0.725,0.735c0.275-0.33,0.568-0.577,0.881-0.738c0.313-0.161,0.658-0.241,1.039-0.241
				c0.441,0,0.826,0.089,1.146,0.262c0.319,0.174,0.558,0.425,0.717,0.747c0.138,0.295,0.206,0.756,0.206,1.385v3.164
				c0,0.342-0.076,0.595-0.229,0.767c-0.154,0.17-0.359,0.255-0.612,0.255c-0.247,0-0.446-0.087-0.603-0.258
				c-0.156-0.173-0.235-0.428-0.235-0.765v-2.726c0-0.349-0.015-0.627-0.043-0.836c-0.029-0.211-0.11-0.388-0.239-0.529
				c-0.133-0.142-0.331-0.215-0.596-0.215c-0.214,0-0.416,0.066-0.609,0.192c-0.192,0.124-0.342,0.298-0.45,0.508
				C320.941,476.425,320.879,476.909,320.879,477.603"/>
		</g>
		<g>
			<path style="fill:#B3EFF4;" d="M245.438,477.092c-0.001-0.003-0.001-0.006-0.001-0.011
				C245.437,477.086,245.437,477.089,245.438,477.092z"/>
			<path style="fill:#B3EFF4;" d="M245.52,477.61c0.001,0,0.001,0,0.001,0c-0.03-0.148-0.055-0.294-0.074-0.439
				C245.467,477.317,245.491,477.464,245.52,477.61z"/>
			<path style="fill:#B3EFF4;" d="M246.057,479.114c-0.004-0.006-0.007-0.013-0.011-0.021
				C246.05,479.1,246.053,479.108,246.057,479.114z"/>
			<path style="fill:#B3EFF4;" d="M246.005,479.014c-0.014-0.027-0.027-0.056-0.041-0.084
				C245.978,478.96,245.991,478.986,246.005,479.014z"/>
			<path style="fill:#B3EFF4;" d="M245.671,478.189c0.079,0.25,0.175,0.493,0.286,0.724c-0.113-0.236-0.206-0.479-0.284-0.724
				C245.673,478.189,245.672,478.189,245.671,478.189z"/>
			<path style="fill:#B3EFF4;" d="M251.712,470.882c0.313,0,0.544,0.025,0.809,0.069l0.075-0.477c0,0-0.732-0.225-1.694-0.146
				l-0.076-0.259c0.299-0.063,0.524-0.329,0.524-0.646c0-0.364-0.296-0.659-0.661-0.659c-0.364,0-0.66,0.295-0.66,0.659
				c0,0.317,0.224,0.584,0.522,0.646l0.084,0.289c-1.021,0.14-1.834,0.539-1.834,0.539l0.144,0.441
				c0.618-0.206,1.154-0.331,1.64-0.383C251.062,470.904,251.42,470.882,251.712,470.882z"/>
			<path style="fill:#B3EFF4;" d="M246.045,473.293l0.004-0.005c0.024-0.031,0.047-0.06,0.071-0.089l-0.196-0.141l-0.305-0.223
				c-0.017,0.024-0.497,0.465-0.876,1.28c-0.016-0.026-0.035-0.051-0.056-0.074c-0.114-0.124-0.272-0.187-0.474-0.184
				c-0.003,0-0.006,0-0.009,0c-0.125,0-0.21-0.042-0.267-0.092c0.056-0.071,0.089-0.16,0.089-0.258c0-0.23-0.187-0.418-0.418-0.418
				c-0.23,0-0.418,0.188-0.418,0.418c0,0.231,0.187,0.418,0.418,0.418c0.036,0,0.071-0.006,0.104-0.013
				c0.103,0.114,0.266,0.214,0.505,0.209c0.123-0.001,0.213,0.03,0.273,0.097c0.069,0.076,0.093,0.185,0.1,0.267
				c-0.001,0.001-0.001,0.003-0.002,0.003c-0.272,0.743-0.194,1.669-0.194,1.669l0.661,0.026c0.013-0.337,0.062-0.927,0.232-1.394
				C245.616,473.883,246.028,473.317,246.045,473.293z"/>
			<path style="fill:#B3EFF4;" d="M257.461,471.434c-0.23,0-0.418,0.187-0.418,0.418c0,0.036,0.005,0.07,0.015,0.103
				c-0.115,0.104-0.214,0.267-0.211,0.507c0.002,0.123-0.03,0.212-0.096,0.273c-0.053,0.047-0.12,0.072-0.185,0.088
				c-0.492-0.689-1.097-1.11-1.097-1.11l-0.474,0.508c0.358,0.326,0.725,0.734,1.08,1.244c0.246,0.352,0.499,0.806,0.71,1.259
				l0.64-0.304c0,0-0.292-0.722-0.704-1.37c0.072-0.025,0.143-0.064,0.207-0.12c0.125-0.113,0.187-0.273,0.183-0.474
				c-0.001-0.13,0.042-0.218,0.093-0.276c0.071,0.054,0.16,0.089,0.257,0.089c0.232,0,0.419-0.187,0.419-0.418
				C257.88,471.621,257.693,471.434,257.461,471.434z"/>
			<path style="fill:#B3EFF4;" d="M255.801,477.185c-0.881,0.429-2.33,0.996-4.238,1.262c-0.749,0.104-1.475,0.142-2.143,0.142
				c-0.869,0-1.637-0.065-2.227-0.139c-0.673-0.085-1.198-0.189-1.52-0.261c0.077,0.245,0.171,0.488,0.284,0.724
				c0.002,0.006,0.005,0.013,0.008,0.017c0.014,0.027,0.027,0.056,0.041,0.084c0.013,0.027,0.027,0.054,0.041,0.079
				c0.004,0.007,0.007,0.015,0.011,0.021c0.189,0.357,0.417,0.684,0.675,0.968c0.9,0.984,1.817,1.14,1.826,1.141l0.014,0.002
				l0.013,0.005c0.008,0.003,0.821,0.266,2.057,0.266c1.216,0,2.409-0.245,3.546-0.729c0.842-0.431,1.639-1.085,2.034-1.669
				c0.305-0.452,0.525-0.933,0.656-1.434c0.07-0.266,0.124-0.692,0.092-1.141C256.723,476.69,256.331,476.927,255.801,477.185z"/>
			<path style="fill:#B3EFF4;" d="M246.327,473.502c-0.026,0.037-0.408,0.578-0.71,1.408c-0.226,0.622-0.216,1.527-0.216,1.538
				v0.002c0,0.212,0.012,0.423,0.035,0.632c0,0.005,0,0.008,0.001,0.011c0.002,0.027,0.007,0.052,0.009,0.079
				c0.019,0.145,0.043,0.291,0.074,0.439c0.438,0.111,3.049,0.72,5.968,0.314c1.829-0.255,3.218-0.795,4.062-1.204
				c0.701-0.34,1.151-0.648,1.325-0.774c-0.173-0.643-0.651-1.65-1.09-2.279c-1.253-1.791-2.604-2.25-3.298-2.365
				c-0.265-0.043-0.477-0.068-0.777-0.068c-0.28,0-0.626,0.022-1.09,0.071c-0.464,0.048-0.982,0.17-1.583,0.372
				c-0.842,0.282-1.605,0.724-2.204,1.28l-0.02,0.019C246.726,473.058,246.541,473.23,246.327,473.502z M253.996,473.085
				c0.601,0,1.089,0.488,1.089,1.09c0,0.601-0.489,1.09-1.089,1.09c-0.601,0-1.089-0.489-1.089-1.09
				C252.907,473.573,253.395,473.085,253.996,473.085z M248.845,473.042c0.973,0,1.76,0.789,1.76,1.761s-0.788,1.759-1.76,1.759
				c-0.972,0-1.76-0.787-1.76-1.759S247.873,473.042,248.845,473.042z"/>
		</g>
	</g>
</g>
</svg>
