<?xml version="1.0" encoding="utf-8"?>
<!-- Generator: Adobe Illustrator 27.5.0, SVG Export Plug-In . SVG Version: 6.00 Build 0)  -->
<svg version="1.1" xmlns="http://www.w3.org/2000/svg" xmlns:xlink="http://www.w3.org/1999/xlink" x="0px" y="0px"
	 viewBox="0 0 570 500" style="enable-background:new 0 0 570 500;" xml:space="preserve">
<g id="BACKGROUND">
	<path style="fill:#F0EEE2;" d="M51.368,250.857c-0.083,2.564-0.093,5.129-0.011,7.697c1.635,51.267,8.766,99.433,30.663,146.44
		c8.426,18.087,19.268,36.076,36.272,46.515c12.915,7.93,28.241,10.789,43.244,12.935c77.148,11.036,156.429,6.954,232.036-11.947
		c43.074-10.768,88.641-29.358,109.576-68.513c11.741-21.958,14.079-47.623,14.877-72.51c0.609-18.988,0.453-38.001-0.463-56.977
		c-2.751-56.967-4.334-130.51-45.147-175.285c-29.508-32.372-75.991-42.353-119.567-46.8c-47.756-4.874-95.975-5.197-143.791-0.962
		c-21.382,1.894-42.944,4.761-62.908,12.648c-34.346,13.568-62.365,42.328-75.033,77.016c-8.347,22.857-10.076,47.284-12.344,71.304
		C56.92,212.026,52.002,231.39,51.368,250.857z"/>
</g>
<g id="OBJECTS">
	<g>
		<path style="fill:#D9D6CC;" d="M316.007,98.843l184.05,0.489l13.857,20.608l1.464-33.919c0.364-8.433-6.374-15.468-14.815-15.468
			H316.037c-7.812,0-14.145,6.333-14.145,14.145l0,0C301.891,92.499,308.207,98.827,316.007,98.843z"/>
		<path style="fill:#262626;" d="M491.438,79.903c-57.771-0.476-114.275-0.476-172.74,0l-0.006-0.75
			c58.469-0.476,114.977-0.476,172.752,0L491.438,79.903z"/>
		<path style="fill:#262626;" d="M402.744,86.637c-27.691-0.206-55.971-0.206-84.047,0l-0.006-0.75
			c28.081-0.207,56.36-0.207,84.059,0L402.744,86.637z"/>
		<path style="fill:#262626;" d="M461.325,87.362c-8.731,0-17.553-0.069-26.771-0.208l0.012-0.75
			c18.431,0.277,35.268,0.277,52.985,0l0.012,0.75C478.699,87.293,470.057,87.362,461.325,87.362z"/>
	</g>
	<g>
		<defs>
			<polygon id="SVGID_1_" points="518.7,365.745 76.817,365.745 76.817,121.041 60.223,87.507 62.16,26.491 171.601,23.586 
				209.372,121.041 518.7,121.041 			"/>
		</defs>
		<clipPath id="SVGID_00000142148715781477091930000017985375782678867623_">
			<use xlink:href="#SVGID_1_"  style="overflow:visible;"/>
		</clipPath>
		
			<rect x="76.817" y="147.115" style="clip-path:url(#SVGID_00000142148715781477091930000017985375782678867623_);fill:#A2DBF5;" width="392.879" height="218.629"/>
		<path style="clip-path:url(#SVGID_00000142148715781477091930000017985375782678867623_);fill:#FFFFFF;" d="M87.161,182.359
			c0.119,0.119,0.236,0.241,0.349,0.367c0.782,0.865,1.434,1.952,1.377,3.116c-0.122,2.497-3.104,3.645-5.544,4.188
			c15.944-2.137,31.079-3.294,46.418,2.142c3.078,1.09,6.568,2.947,6.86,6.199c0.223,2.48-1.69,4.752-3.965,5.761
			c-2.276,1.009-4.849,1.034-7.339,1.042c-14.589,0.045-29.178,0.09-43.767,0.135c-10.931,0.034-55.736,5.414-46.738-14.775
			c6.167-13.838,29.433-14.134,41.957-12.377C80.536,178.686,84.491,179.69,87.161,182.359z"/>
		<path style="clip-path:url(#SVGID_00000142148715781477091930000017985375782678867623_);fill:#FFFFFF;" d="M260.061,158.492
			c-1.689,0.271-3.281,0.672-4.711,1.255c-5.001,2.037-7.867,9.128-1.435,11.959c-8.45,0.457-16.9,0.915-25.349,1.372
			c-2.121,0.115-4.299,0.243-6.232,1.123c-5.252,2.39-3.687,7.322,1.119,8.904c13.155,4.326,31.188,1.636,44.993,1.235
			c10.225-0.297,26.484,1.518,35.693-2.67c-0.617-3.379-6.427-6.517-9.853-5.926c12.906-2.225,26.043-2.16,38.96-4.838
			c1.893-0.393,3.853-0.849,5.361-2.058c1.508-1.209,2.412-3.398,1.561-5.134c-0.937-1.911-3.383-2.413-5.496-2.67
			c-18.333-2.229-36.819-3.193-55.285-2.887C273.816,158.251,266.283,157.492,260.061,158.492z"/>
		<path style="clip-path:url(#SVGID_00000142148715781477091930000017985375782678867623_);fill:#FFFFFF;" d="M415.424,161.922
			c-0.905,0.4-1.639,0.895-2.125,1.51c-4.183,5.295,2.871,6.557-7.039,7.059c-5.597,0.283-11.656,0.275-16.668,3.141
			c-5.513,3.152-5.222,7.193,1.615,7.157c11.923-0.063,23.846-0.127,35.769-0.19c12.558-0.067,25.115-0.133,37.672-0.238
			c6.762-0.057,46.128-2.586,28.448-15.66c-11.103-8.211-26.123-8.163-39.887-7.033c-6.979,0.574-13.94,1.339-20.892,2.177
			C428.711,160.28,419.936,159.925,415.424,161.922z"/>
		<path style="clip-path:url(#SVGID_00000142148715781477091930000017985375782678867623_);fill:#87B3C9;" d="M457.062,373.345
			c3.066,0.382,4.109,4.772,2.444,7.375c-1.665,2.603-4.818,3.761-7.757,4.713c-80.982,26.238-168.16,24.393-253.091,18.633
			c-37.588-2.549-75.226-5.827-112.155-13.285c-14.168-2.862-29.533-7.216-37.586-19.219c-3.933-5.862-5.632-12.956-6.355-19.978
			c-0.771-7.483-0.479-15.237,2.291-22.23c3.196-8.068,9.404-14.505,15.464-20.716c39.253-40.236,78.591-83.095,126.781-112.798
			c2.747-1.693,5.695-3.401,8.922-3.409c4.533-0.011,8.315,3.276,11.628,6.368c10.964,10.233,21.559,20.484,31.833,31.367
			c13.036,13.808,28.557,24.993,44.092,35.913c53.155,37.362,107.733,72.699,163.576,105.91
			C451.311,371.767,454.199,370.316,457.062,373.345z"/>
		<g style="clip-path:url(#SVGID_00000142148715781477091930000017985375782678867623_);">
			<defs>
				
					<rect id="SVGID_00000067207732536465401570000010628678196812511159_" x="76.817" y="147.115" width="392.879" height="218.629"/>
			</defs>
			<clipPath id="SVGID_00000181765381016297208360000010027510629118860172_">
				<use xlink:href="#SVGID_00000067207732536465401570000010628678196812511159_"  style="overflow:visible;"/>
			</clipPath>
			<path style="clip-path:url(#SVGID_00000181765381016297208360000010027510629118860172_);fill:#355C5C;" d="M429.294,399.57
				c-25.274,1.692-51.322-0.42-75.669-0.811c-31.898-0.513-63.919-1.024-95.564-5.462c-28.192-3.954-55.21-14.554-82.148-23.928
				c-3.852-1.34-8.526-4.129-7.602-8.102c0.452-1.941,2.173-3.282,3.782-4.459c11.508-8.416,23.017-16.833,34.525-25.249
				c14.662-10.723,29.339-21.458,44.616-31.297c15.191-9.784,30.156-13.329,47.129-19.143c34.23-11.726,66.995-27.731,97.265-47.554
				c11.786-7.719,25.245-16.422,38.878-12.868c11.322,2.951,18.763,13.481,24.99,23.387c13.758,21.889,26.548,44.932,33.797,69.885
				c5.261,18.109,14.186,52.586-1.619,67.847c-3.063,2.958-6.971,4.869-10.886,6.543
				C464.589,395.286,447.134,398.376,429.294,399.57z"/>
			<path style="clip-path:url(#SVGID_00000181765381016297208360000010027510629118860172_);fill:#90C5DE;" d="M462.183,346.392
				c-11.823,1.448-23.62,3.029-35.197,5.309c-17.539,3.454-34.484,8.495-52.184,11.464c-38.582,6.471-79.205,2.862-117.902,8.943
				c-17.258,2.712-36.199,9.039-40.885,21.643c-1.768,4.754-0.742,10.537,4.576,13.502c16.939,9.441,37.277,6.502,56.993,5.756
				c23.674-0.895,47.403-1.191,71.093-0.471c47.794,1.452,97.59,6.798,142.024-6.33c10.003-2.956,22.443-5.99,29.147-12.658
				c7.927-7.883,7.849-21.842,9.148-31.29c0.55-3.999,0.898-8.265-1.656-11.811c-4.145-5.754-14.18-7.431-22.98-7.567
				c-11.422-0.177-22.774,1.179-34.052,2.53C467.6,345.735,464.891,346.06,462.183,346.392z"/>
		</g>
		<path style="clip-path:url(#SVGID_00000142148715781477091930000017985375782678867623_);fill:#355C5C;" d="M173.616,349.08
			c-3.559-21.799,21.768-35.199,37.903-41.854c9.077-3.744,10.714-15.604,15.728-24.046c1.103-1.857,2.777-3.777,4.935-3.685
			c2.678,0.114,4.155,3.17,4.6,5.813c0.445,2.643,0.614,5.664,2.672,7.381c3.613,3.012,6.506-21.23,6.752-22.865
			c0.716-4.748,2.352-10.522,7.057-11.474c5.25-1.063,9.071,4.859,10.677,9.969c1.606,5.11,3.597,11.322,8.831,12.461
			c7.261,1.58,13.243-8.423,20.525-6.946c3.509,0.712,4.729,3.673,7.41,5.46c3.902,2.6,8.518,3.684,12.214,6.001
			c5.132,3.217,8.401,5.989,8.41,12.874c0.013,10.384-10.017,19.612-17.054,25.958c-17.331,15.629-38.745,28.256-59.835,38.161
			c-18.895,8.874-60.048,19.844-69.646-8.522C174.253,352.163,173.864,350.601,173.616,349.08z"/>
		<g style="clip-path:url(#SVGID_00000142148715781477091930000017985375782678867623_);">
			<defs>
				<path id="SVGID_00000105406219391412436520000000388262519293357714_" d="M457.062,373.345c3.066,0.382,4.109,4.772,2.444,7.375
					c-1.665,2.603-4.818,3.761-7.757,4.713c-80.982,26.238-168.16,24.393-253.091,18.633c-37.588-2.549-75.226-5.827-112.155-13.285
					c-14.168-2.862-29.533-7.216-37.586-19.219c-3.933-5.862-5.632-12.956-6.355-19.978c-0.771-7.483-0.479-15.237,2.291-22.23
					c3.196-8.068,9.404-14.505,15.464-20.716c39.253-40.236,78.591-83.095,126.781-112.798c2.747-1.693,5.695-3.401,8.922-3.409
					c4.533-0.011,8.315,3.276,11.628,6.368c10.964,10.233,21.559,20.484,31.833,31.367c13.036,13.808,28.557,24.993,44.092,35.913
					c53.155,37.362,107.733,72.699,163.576,105.91C451.311,371.767,454.199,370.316,457.062,373.345z"/>
			</defs>
			<clipPath id="SVGID_00000008120578671008438050000017855900268290836867_">
				<use xlink:href="#SVGID_00000105406219391412436520000000388262519293357714_"  style="overflow:visible;"/>
			</clipPath>
			<g style="opacity:0.76;clip-path:url(#SVGID_00000008120578671008438050000017855900268290836867_);">
				<path style="fill:#FFFFFF;" d="M113.744,240.697c-4.503,4.498-8.189,9.459-9.802,14.996c10.737,0.14,22.073-2.44,32.423-5.271
					c-0.589,8.729-0.334,17.515,0.759,26.195c10.783-6.256,20.552-14.254,28.814-23.589c2.151-2.431,6.125-4.993,8.098-2.416
					c0.509,0.664,0.68,1.519,0.836,2.341c1.25,6.563,2.5,13.125,3.75,19.688c9.253-10.816,16.643-23.221,21.749-36.507
					c0.265-0.69,0.538-1.404,1.057-1.93c1.479-1.5,4.003-0.761,5.892,0.17c10.739,5.294,31.505,13.973,28.49-5.648
					c-2.239-14.573-14.777-29.438-25.906-38.258c-10.908-8.645-18.41-2.665-29.854,3.484c-16.167,8.686-31.564,18.803-45.95,30.199
					C128.033,228.957,120.08,234.368,113.744,240.697z"/>
				<path style="fill:#FFFFFF;" d="M136.731,290.291c0.826,0.274,1.52,0.838,1.777,1.663c0.583,1.871-0.853,4.332-0.684,6.216
					c4.985-5.81,10.656-10.917,17.309-14.817c1.496,1.185,1.787,3.411,1.264,5.246c-0.523,1.835-1.694,3.402-2.731,5.004
					c-2.02,3.123-3.598,6.531-4.67,10.092c-0.216,0.718-0.388,1.573,0.086,2.154c1.082,1.328,3.238-0.686,4.871-0.169
					c0.944,0.299,1.418,1.423,1.308,2.407c-0.109,0.984-0.657,1.857-1.191,2.691c-2.395,3.744-4.79,7.488-7.185,11.232
					c-0.756,1.182-1.545,2.398-2.709,3.181c-1.165,0.783-2.816,1.022-3.943,0.186c-2.036-1.509-1.178-5.117-3.791-6.087
					c-2.722-1.011-5.263,2.02-7.134,3.535c-4.536,3.674-8.942,7.187-13.936,10.279c-2.721,1.685-6.236,3.315-8.938,1.6
					c-1.285-0.816-2.117-2.279-3.518-2.875c-2.452-1.043-5.341,1.041-7.871,0.205c-1.899-0.628-2.952-2.792-2.891-4.791
					c0.06-1.999,0.995-3.859,1.993-5.593c3.346-5.812,7.649-11.071,12.684-15.502c1.497-1.317,3.138-2.601,5.09-3.006
					c1.952-0.405,4.28,0.34,5.09,2.162c4.596-4.202,9.193-8.404,13.789-12.606c1.146-1.047,2.36-2.132,3.868-2.498
					C135.334,290.037,136.074,290.072,136.731,290.291z"/>
			</g>
		</g>
		<g style="clip-path:url(#SVGID_00000142148715781477091930000017985375782678867623_);">
			<path style="fill:#2A8C7B;" d="M485.434,203.084c1.973-5.589,2.519-11.676,1.571-17.528c-0.133-0.818-9.772,2.001-8.406-2.279
				c0.167-0.524,0.541-0.966,1.009-1.255c2.371-1.46,5.14-2.263,7.924-2.308c-0.418-10.111-2.121-20.101-4.761-29.864
				c-3.703,1.534-7.301,3.32-10.762,5.342c-0.645,0.377-8.533,5.003-8.605,4.927c1.9,2.012,6.404,8.573,1.147,10.154
				c-2.667,0.802-5.957-3.362-6.623-5.585c-5.104,4.234-10.111,8.584-15.017,13.046c-2.465,2.241-4.845,4.578-7.317,6.811
				c-0.436,0.394-5,4.749-5.258,4.638c2.694,1.154,6.364,2.705,6.443,6.177c0.021,0.938-0.317,1.889-1.02,2.51
				c-1.394,1.232-3.259,0.723-4.847,0.124c-1.651-0.622-3.27-1.328-4.85-2.113c-0.763-0.379-1.581-0.789-2.424-0.666
				c-0.935,0.136-1.643,0.885-2.266,1.595c-5.783,6.594-11.046,13.644-15.726,21.063c0.433-0.687,2.432-0.277,2.995-0.016
				c-0.458,5.665-4.854,6.529-8.387,9.988c-9.442,9.246-9.218,24.813-10.631,37.091c-1.833,15.92-2.306,32.299,2.359,47.808
				c7.787-13.558,17.737-26.557,28.275-38.062c10.071-10.995,21.273-13.392,33.017-21.428c1.447-0.99,13.752-13.509,13.782-13.502
				c-4.018-0.959-7.475-4.009-8.928-7.876c5.302-0.112,10.627,0.997,15.444,3.216c5.622-7.893,9.724-16.865,12.016-26.281
				c-2.157-0.028-4.299-0.587-6.211-1.583c-1.945-1.014-1.445-3.964,0.713-4.355C481.86,202.553,483.699,202.615,485.434,203.084z
				 M424.059,218.039c-0.285-0.003-0.577-0.042-0.855-0.102c-0.26-0.057-0.502-0.168-0.745-0.273
				c-0.394-0.17-0.735-0.434-1.062-0.708c-0.604-0.506-1.077-1.173-1.512-1.824c-0.215-0.322-0.23-0.742-0.151-1.109
				c-0.056-0.245-0.052-0.505,0.003-0.747c0.08-0.349,0.37-0.698,0.674-0.876c0.168-0.107,0.35-0.165,0.545-0.174
				c0.195-0.044,0.39-0.035,0.585,0.026c0.453,0.069,0.9,0.266,1.29,0.5c0.419,0.251,0.813,0.57,1.151,0.922
				c0.676,0.704,1.215,1.569,1.49,2.51C425.738,217.093,425,218.048,424.059,218.039z M431.045,210.75
				c-0.013,0.149-0.028,0.304-0.063,0.451c-0.005,0.021-0.012,0.041-0.019,0.06c-0.047,0.133-0.1,0.275-0.171,0.399
				c-0.005,0.009-0.011,0.018-0.017,0.026c-0.068,0.104-0.161,0.224-0.244,0.316c-0.014,0.015-0.027,0.029-0.042,0.043
				c-0.092,0.085-0.215,0.176-0.318,0.246c-0.008,0.006-0.016,0.012-0.025,0.017c-0.019,0.012-0.039,0.021-0.059,0.03
				c-0.153,0.072-0.315,0.155-0.486,0.184c-0.179,0.031-0.375,0.068-0.562,0.06c-0.2-0.008-0.401-0.041-0.598-0.077
				c-0.085-0.015-0.168-0.036-0.251-0.06c-0.334-0.097-0.657-0.242-0.973-0.385c-0.274-0.124-0.541-0.265-0.802-0.413
				c-0.403-0.229-0.795-0.478-1.18-0.736c-0.025,0.003-0.048,0.012-0.073,0.013c-0.195,0.044-0.39,0.035-0.584-0.026
				c-0.191-0.045-0.357-0.133-0.498-0.262c-0.16-0.103-0.285-0.24-0.378-0.411c-0.197-0.297-0.371-0.609-0.512-0.937
				c-0.113-0.264-0.233-0.528-0.304-0.807c-0.035-0.139-0.052-0.277-0.071-0.419c-0.018-0.132-0.039-0.261-0.041-0.394
				c-0.005-0.51,0.282-1.013,0.726-1.266c0.198-0.113,0.412-0.196,0.622-0.282c0.189-0.077,0.383-0.132,0.585-0.162
				c0.325-0.049,0.645-0.096,0.973-0.07c0.326,0.026,0.659,0.07,0.976,0.157c0.316,0.086,0.62,0.22,0.918,0.353
				c0.5,0.224,0.933,0.542,1.363,0.878c0.32,0.249,0.616,0.528,0.882,0.834c0.302,0.349,0.6,0.725,0.815,1.136
				c0.121,0.232,0.23,0.476,0.307,0.726c0.017,0.055,0.031,0.111,0.041,0.169c0.03,0.176,0.066,0.359,0.066,0.539
				C431.048,210.703,431.047,210.726,431.045,210.75z M442.61,191.485c-0.229,0.132-0.475,0.199-0.74,0.2
				c-0.265-0.001-0.511-0.068-0.74-0.2c-0.335-0.226-0.66-0.478-0.91-0.797c-0.159-0.203-0.314-0.404-0.456-0.618
				c-0.084-0.127-0.166-0.256-0.25-0.383c-0.133-0.229-0.199-0.475-0.2-0.74c0.008-0.058,0.015-0.115,0.023-0.173
				c-0.009-0.063-0.02-0.126-0.023-0.191c-0.017-0.39,0.173-0.757,0.429-1.036c0.133-0.143,0.29-0.244,0.472-0.303
				c0.175-0.092,0.363-0.134,0.565-0.126c0.202-0.008,0.39,0.034,0.565,0.126c0.182,0.059,0.339,0.16,0.472,0.303
				c0.258,0.257,0.545,0.49,0.771,0.777c0.122,0.154,0.256,0.311,0.359,0.482c0.102,0.168,0.172,0.358,0.244,0.539
				c0.031,0.078,0.056,0.158,0.071,0.241c0.039,0.208,0.073,0.423,0.075,0.635C443.341,190.735,443.053,191.226,442.61,191.485z
				 M469.691,221.292c-1.802,1.104-4.064,1.157-6.037,0.511c-0.781-0.256-1.207-0.998-1.024-1.803
				c0.059-0.26,0.211-0.49,0.411-0.672c0.029-0.079,0.061-0.156,0.101-0.224c0.203-0.346,0.511-0.538,0.876-0.674
				c0.893-0.332,1.846-0.564,2.803-0.576c1.189-0.015,2.259,0.378,3.167,1.135C470.736,219.614,470.434,220.837,469.691,221.292z
				 M472.961,161.685c-0.001,0.265-0.068,0.511-0.2,0.74c-0.076,0.099-0.153,0.198-0.229,0.297
				c-0.183,0.182-0.399,0.307-0.647,0.377c-0.13,0.017-0.26,0.035-0.39,0.052c-0.202,0.008-0.39-0.035-0.565-0.126
				c-0.182-0.059-0.339-0.16-0.472-0.303c-0.143-0.133-0.244-0.29-0.303-0.472c-0.092-0.175-0.134-0.363-0.126-0.565v-0.363
				c0.001-0.265,0.068-0.511,0.2-0.74c0.076-0.099,0.153-0.198,0.229-0.297c0.183-0.182,0.398-0.307,0.647-0.377
				c0.13-0.017,0.26-0.035,0.39-0.052c0.202-0.007,0.39,0.035,0.565,0.126c0.182,0.059,0.339,0.16,0.472,0.303
				c0.143,0.133,0.244,0.29,0.303,0.472c0.092,0.175,0.134,0.363,0.126,0.565V161.685z M476.878,170.299
				c1.186-0.776,2.486-1.455,3.661-1.781c4.382-1.217,0.551,3.165-1.195,4.211c-1.278,0.766-2.764,1.264-4.248,1.126
				c-0.4-0.037-0.852-0.161-1.023-0.525c-0.242-0.513,0.233-1.06,0.663-1.428C475.352,171.375,476.09,170.816,476.878,170.299z"/>
			<path style="fill:#1D2144;" d="M412.821,265.876l-0.484-0.127c4.173-15.987,15.963-29.01,28.081-40.702l1.753-1.686
				c4.766-4.576,9.694-9.309,13.684-14.681c7.574-10.199,11.734-22.544,15.671-35.357l0.479,0.146
				c-3.95,12.856-8.126,25.247-15.747,35.509c-4.016,5.406-8.959,10.153-13.74,14.744l-1.751,1.685
				C428.699,237.048,416.963,250.008,412.821,265.876z"/>
		</g>
		<path style="clip-path:url(#SVGID_00000142148715781477091930000017985375782678867623_);fill:#8C384C;" d="M511.545,250.7
			c-0.161,0-0.323,0-0.484,0"/>
		<g style="clip-path:url(#SVGID_00000142148715781477091930000017985375782678867623_);">
			<path style="fill:#503444;" d="M259.668,259.618c-3.349,22.216,0.567,42.797,4.975,64.284
				c3.736,18.21,18.139,34.575,34.866,41.863c6.565,2.86,13.614,4.534,20.736,5.187c21.393,1.961,37.885-5.159,49.002-23.116
				c10.205-16.483,12.984-36.485,14.594-55.487c2.125-25.072,4.762-52.244-1.525-76.921c-4.2-16.486-19.497-29.419-34.449-37.366
				c-19.904-10.579-49.029-5.813-65.858,9.201C260.324,206.61,263.795,232.244,259.668,259.618z"/>
			<g>
				<g>
					<path style="fill:#FAC34D;" d="M332.768,251.883c-0.104-14.697-6.738-29.432-2.313-44.077h-35.741
						c-0.145,4.051-0.449,8.102-1.348,12.154c-0.106,0.478-1.102,0.671-2.06,0.628c-3.553,49.902,1.385,99.857-1.28,149.771h44.184
						c0.571-22.862,1.275-45.712,0.117-68.609C333.487,285.127,332.887,268.509,332.768,251.883z"/>
					<path style="fill:#E84B4B;" d="M375.947,277.788c0.043-1.603,0.015-3.198-0.102-4.781c-0.622-8.381-1.495-16.822-2.898-25.114
						c-2.712-16.023-8.065-34.547-23.697-42.948c-7.517-4.039-17.858-5.206-27.843-5.678c0.034,1.512,8.555,8.611,8.55,10.126
						c0.384,0.208-4.463,9.926-4.724,11.105c-2.649,11.961-2.246,20.587-1.342,33.936c1.012,14.931,0.445,29.924,0.776,44.885
						c0.497,22.52-0.028,44.769-0.05,67.148c0,0.359,0.013,0.754,0.254,1.019c0.204,0.225,0.425,13.416,0.722,13.478
						c14.061,2.914,31.325-3.641,45.52-5.811c9.644-1.474,0.738-33.562-0.088-40.444c-0.568-4.732-1.304-9.464-1.274-14.228
						c0.031-4.755,0.824-9.47,1.616-14.162C372.933,297.039,375.69,287.267,375.947,277.788z"/>
					<path style="fill:#D98C73;" d="M168.351,276.223c4.507,5.414,10.263,8.559,17.778,6.949
						c19.498-4.175,38.305-11.532,55.488-21.643c5.97-3.513,19.331-9.519,21.423-16.486c1.816-6.047-3.92-17.236-8.611-20.691
						c-5.128-3.777-14.096-3.627-20.084-3.5c-10.318,0.219-19.627,2.791-29.327,5.894c-9.616,3.076-9.159,0.693-12.253-8.945
						c-5.795-18.052-13.91-35.36-24.092-51.353c-2.988-4.692-7.26-9.829-12.797-9.291c-7.012,0.682-9.618,9.478-10.111,16.506
						c-1.55,22.129,1.034,44.52,7.416,65.757C156.173,249.375,160.237,266.476,168.351,276.223z"/>
					<path style="fill:#D98C73;" d="M429.526,248.66c-7.164-6.545-14.46-12.979-21.855-19.326c-3.119,2.888-6.284,5.738-9.442,8.594
						c-8.872,8.026-18.105,16.508-24.779,26.186c3.002,2.357,6.306,4.538,9.749,6.642c2.713,1.658,21.773,14.352,24.852,11.15
						c-8.045,8.43-12.957,18.277-19.668,27.712c-3.733,5.248-3.708,4.7-7.91,9.685c-0.813,0.965-7.548,7.206-8.047,8.32
						c0.457,0.106,0.871,0.339,1.104,0.732c2.737,4.598,4.947,9.58,6,14.736c17.41-8.121,33.614-18.311,48.087-30.195
						c7.67-6.298,28.162-20.521,27.748-30.566C454.789,268.334,439.682,257.938,429.526,248.66z"/>
					<path style="fill:#E84B4B;" d="M301.471,210.315c0.056-3.924,0.079-7.851,0.106-11.777
						c-11.995-0.673-21.208-1.095-29.468,8.111c-0.989,1.102-1.936,2.245-2.844,3.421c-6.25,8.101-14.552,17.381-13.722,27.373
						c1.709,20.571-0.86,41.507-2.12,62.053c-1.401,22.838-2.721,45.682-3.96,68.529c-0.105,1.934,26.57,3.54,29.133,3.577
						c3.896,0.056,7.792-0.062,11.678-0.339c-0.037-2.074-0.066-4.148-0.073-6.222c-0.011-3.363-0.067-6.757,0.129-10.116
						c0.198-3.406,0.539-6.809,0.767-10.214c0.905-13.557,1.37-27.143,1.399-40.73c0.014-6.781,0.37-13.578,0.648-20.353
						c0.273-6.66,0.593-13.318,0.984-19.972c0.389-6.625,0.835-13.251,1.354-19.871c-0.734-9.257-1.075-18.478-0.457-27.596
						c-0.071-1.926,6.717-3.291,6.74-5.22C301.59,210.832,301.467,210.623,301.471,210.315z"/>
					<path style="fill:#E84B4B;" d="M404.274,222.991c-0.824,1.07-1.649,2.141-2.473,3.211c1.344-1.745-30.504-17.271-33.46-18.343
						c-6.242-2.263-12.665-4.032-19.189-5.271c-4.942-0.939-14.267,0.467-18.464-1.693c5.107,2.628,9.369,6.8,12.052,11.797
						c4.424,8.239,5.105,17.927,5.905,27.03c0.489,5.566-1.658,13.069,0.759,18.069c0.155,0.321,0.41,0.676,0.751,1.061
						c5.076,5.707,29.48,17.942,36.347,24.122c1.039,0.935,2.684,0.535,3.224-0.755c7.221-17.269,15.552-34.034,23.006-51.216
						c0.313-0.721,0.631-1.474,0.594-2.259c-0.012-0.257-0.071-0.483-0.145-0.7C410.362,226.132,407.267,224.646,404.274,222.991z"
						/>
					<path style="fill:#E79979;" d="M331.204,199.171c-2.21-1.547-3.958-3.91-5.066-6.376c-2.803-6.242-1.984-12.715-0.647-19.189
						c1.347-6.523,2.438-11.916,0.098-18.278c-2.049-5.572-5.56-10.647-10.267-14.395c-6.276-4.998-16.608-2.355-24.156-1.494
						c-1.102,6.96-1.695,14-1.77,21.046c-0.083,7.734,1.79,13.629,7.694,18.623c1.186,1.003,1.094,1.461,1.075,3.123
						c-0.042,3.766-0.267,7.534-0.637,11.282c-0.393,3.968-6.241,3.846-9.422,4.289c-0.519,0.072-1.055,0.157-1.498,0.432
						c-2.534,1.571,8.409,15.562,10.441,17.277c4.381,3.696,10.507,5.49,16.612,4.865c5.32-0.545,10.262-3.09,14.12-6.657
						c1.842-1.703,4.117-3.756,5.259-6.006c1.143-2.251,1.601-4.602,3.17-6.744C334.37,200.877,332.683,200.207,331.204,199.171z"/>
					<path style="fill:#E84B4B;" d="M287.826,204.094c-0.579-1.496-0.858-4.528-2.527-5.286c-1.85-0.841-6.124,0.291-8.071,0.605
						c-20.05,3.238-39.079,9.602-57.648,17.797c-0.299-0.76-0.75-1.46-1.32-2.045c-2.699,1.072-5.576,2.331-7.862,4.112
						c3.549,10.418,6.768,20.817,9.509,31.493c0.691,2.692,9.231,30.932,8.611,31.308c0.04-0.024,0.08-0.047,0.12-0.072
						c15.503-9.418,31.577-12.888,45.623-24.285c6.788-5.508,14.245-18.546,16.602-27.292
						C293.21,221.725,291.137,212.635,287.826,204.094z"/>
					<path d="M293.135,127.742c10.271,0.219,20.401,2.703,30.401,5.171c3.283,0.81,6.941,1.901,8.532,4.885
						c0.799,1.499,0.931,3.255,0.989,4.953c0.317,9.145-1.658,16.596-5.311,24.919c-0.559,1.273-1.146,2.586-2.174,3.521
						c0.627-4.855-2.222-8.354-4.175-12.448c-0.976-2.045-1.453-4.263-1.348-6.491c0.106-2.265,0.187-2.883-2.439-3.54
						c-5.658-1.415-11.705,1.079-17.382,1.229c-1.184,0.031-2.819-0.58-2.499-1.72c0.25-0.892,1.616-1.155,1.749-2.073
						c-3.089,0.653-6.366,0.873-9.359-0.131c-1.95-0.654-4.891-2.587-5.461-4.696c-0.229-0.849,1.46-5.473,2.69-4.26
						c-1.642-1.62-4.684-2.21-4.961-4.5c-0.087-0.716,0.161-1.441,0.554-2.045c1.476-2.264,4.564-2.714,7.266-2.775
						C291.184,127.72,292.16,127.721,293.135,127.742z"/>
					<path style="fill:#E79979;" d="M321.777,151.673c3.746-0.064,7.188,2.862,6.82,6.612c-0.36,3.665-3.509,7.023-7.525,7.091
						c-3.746,0.064-5.808-2.608-5.44-6.358C315.993,155.352,317.761,151.741,321.777,151.673z"/>
					<path d="M320.318,156.212c0.87-0.517,2.002-0.221,2.675,0.414c0.778,0.733,1.1,1.883,0.829,2.96
						c-0.271,1.077-1.127,2.048-2.202,2.499"/>
					<path style="fill:#D98C73;" d="M393.441,325.921c-0.235-0.337-0.482-0.664-0.732-0.98c-0.756-0.952-1.591-1.885-2.676-2.435
						c-2.057-1.042-3.362-2.803-5.361-3.85c-1.721-0.901-3.795-1.711-5.325-2.887c-1.424-1.094-3.158-1.69-4.746-2.53
						c-0.924-0.489-2.588-3.498-3.738-2.991c-0.944,0.416-0.818,5.652-0.918,6.703c-0.532,5.577-6.674,4.568-10.996,4.667
						c-2.901,0.066-5.797,0.332-8.661,0.795c-1.841,0.297-3.805,0.751-5.041,2.148c-0.237,0.267-0.446,0.578-0.498,0.931
						c-0.142,0.975,0.963,1.704,1.947,1.758c4.763,0.259,9.654-0.31,14.476,0.048c1.573,0.117,3.238,0.588,1.555,1.833
						c-1.307,0.967-3.948,1.089-5.511,1.283c-3.678,0.456-7.425,0.366-11.047,1.236c-0.833,0.2-1.681,0.465-2.327,1.027
						c-1.782,1.554-1.373,3.743,0.704,4.431c1.83,0.607,4.172,0.184,6.026-0.071c3.795-0.522,7.573-1.929,11.389-2.182
						c0.496-0.033,1.01-0.05,1.473,0.131c0.463,0.181,0.864,0.612,0.857,1.109c-0.009,0.692-0.731,1.13-1.371,1.392
						c-4.462,1.829-9.466,1.84-14.056,3.316c-1.423,0.458-3.507,1.032-2.484,3.054c0.422,0.834,1.324,1.342,2.244,1.508
						c0.919,0.166,1.865,0.037,2.786-0.119c2.911-0.493,5.77-1.254,8.652-1.895c1.738-0.387,3.546-0.73,5.285-0.352
						c0.211,0.046,0.428,0.106,0.59,0.249c1.833,1.614-3.643,3.31-4.318,3.49c-2.501,0.665-5.15,1.046-7.36,2.486
						c-0.647,0.421-1.279,0.994-1.401,1.756c-0.159,0.992,0.652,1.934,1.599,2.268c0.948,0.333,1.989,0.204,2.981,0.049
						c1.59-0.249,3.178-0.556,4.7-1.078c4.47-1.533,8.909-2.883,13.489-4.128c1.882-0.512,3.783-1.03,5.505-1.946
						c2.397-1.276,4.33-3.256,6.222-5.204c1.533-1.579,3.067-3.159,4.6-4.739c1.399-1.441,2.869-3.02,3.16-5.007
						C395.386,329.32,394.546,327.509,393.441,325.921z"/>
					
						<rect x="405.097" y="281.175" transform="matrix(0.7705 -0.6375 0.6375 0.7705 -85.6394 325.0086)" width="6.795" height="0.499"/>
					<polygon points="371.672,330.096 371.504,329.625 374.175,328.668 374.343,329.139 					"/>
					
						<rect x="373.254" y="335.097" transform="matrix(0.8368 -0.5475 0.5475 0.8368 -122.4479 259.8573)" width="2.913" height="0.499"/>
					
						<rect x="375.131" y="339.707" transform="matrix(0.7809 -0.6247 0.6247 0.7809 -129.8987 309.6008)" width="2.444" height="0.5"/>
					<path d="M449.517,286.452l-0.439-0.236c0.598-1.111,0.864-2.416,0.75-3.674l0.498-0.045
						C450.448,283.851,450.161,285.256,449.517,286.452z"/>
					<path d="M376.371,277.203c-2.796-6.503-6.335-12.702-10.517-18.425l0.404-0.295c4.204,5.753,7.761,11.985,10.571,18.522
						L376.371,277.203z"/>
					<path d="M387.359,319.868c-1.153-0.266-2.186-0.632-3.184-0.984c-0.843-0.299-1.639-0.58-2.471-0.793l0.123-0.484
						c0.855,0.218,1.661,0.504,2.515,0.806c0.985,0.349,2.004,0.709,3.13,0.97L387.359,319.868z"/>
				</g>
				<path d="M302.358,180.573c-1.898,0.196-3.867-0.404-5.333-1.626l0.005,0.066c0.918,0.919,1.111,2.401,1.085,3.729
					c-0.02,1.005-0.183,1.994-0.299,2.988c4.248-0.632,8.071-3.762,9.43-7.839C306.06,179.387,304.256,180.377,302.358,180.573z"/>
				<path style="fill:#A62D2D;" d="M295.333,243.623c-0.014-0.185,0.112-0.953,0.326-2.078c0.435-5.362,0.941-10.717,1.501-16.065
					l-8.351,4.6C288.809,230.08,295.411,244.635,295.333,243.623z"/>
				<polygon style="fill:#A62D2D;" points="332.545,233.97 323.082,240.585 321.942,221.54 				"/>
				<path style="fill:#FFFFFF;" d="M334.542,219.621c0.491-4.061,1.205-8.105,1.531-12.185c0.199-2.493,0.292-5.036,0.916-7.454
					c-2.22-0.167-4.376-1.009-6.197-2.324c-0.611,1.066-1.036,2.343-1.495,3.331c-2.996,6.444-5.42,13.154-7.232,20.025
					c-0.046,0.173-0.088,0.349-0.122,0.526c2.586,2.744,4.756,5.872,6.962,8.921c1.213,1.676,2.523,3.273,3.838,4.866
					C333.221,230.077,333.911,224.838,334.542,219.621z"/>
				<path style="fill:#FFFFFF;" d="M293.488,166.217c0.474,3.003,2.6,5.275,5.203,5.56c2.603,0.285,5.539-1.433,7.183-4.204"/>
			</g>
			<g>
				<path style="fill:#D98C73;" d="M138.881,153.005c-2.702-1.84-4.705-4.654-5.647-7.777c-0.588-1.949-0.839-6.15,2.442-5.351
					c1.269,0.309,2.225,1.315,3.252,2.121c3.93,3.084,9.192,3.402,13.369,6.008c3.68,2.296,7.035,7.026,9.258,10.705
					c2.404,3.979,0.852,9.036-1.146,13.233c-1.119,2.352-2.634,4.634-4.884,5.945c-4.211,2.454-9.825,0.73-13.391-2.593
					C136.131,169.703,134.633,160.025,138.881,153.005z"/>
				<path style="fill:#503444;" d="M165.798,195.91L110.683,93.248l-3.424,3.082l52.665,102.663
					c0.805,1.569,2.696,2.234,4.306,1.514l0,0C165.988,199.72,166.709,197.607,165.798,195.91z"/>
				<path style="fill:#D98C73;" d="M149.707,180.423c-0.462,0.897-1.505,1.3-2.459,1.629c-2.415,0.832-4.639,2.082-7.202,1.849
					c-1.654-0.221-3.243-0.784-4.789-1.413c-0.637-0.259-1.279-0.535-1.817-0.964c-1.515-1.206-1.87-3.632-0.763-5.221
					c-1.425-0.53-2.502-1.717-2.972-3.164c-0.47-1.447-0.244-3.103,0.598-4.37c-1.421-1.248-2.862-2.649-3.335-4.48
					c-0.474-1.831,0.467-4.15,2.33-4.477c-1.605-1.584-1.468-4.478,0.102-6.097c1.57-1.619,4.227-1.924,6.265-0.959
					c3.481,1.649,7.64,0.408,11.16,2.184c2.761,1.393,2.934,4.61-0.204,5.758c4.26,1.431,4.67,7.522-0.008,8.582
					c1.368-0.31,2.925,0.309,3.617,1.529c0.692,1.22,0.373,2.949-0.77,3.762c-0.475,0.338-1.045,0.512-1.603,0.681
					c-0.852,0.258-1.705,0.516-2.558,0.773c1.203,0.197,2.452,0.439,3.419,1.18C149.684,177.946,150.264,179.337,149.707,180.423z"
					/>
				<path d="M150.687,173.792l-0.493-0.081c0.254-1.548,0.064-2.668-0.566-3.329c-0.999-1.047-2.946-0.821-4.235-0.672
					c-0.249,0.029-0.474,0.055-0.665,0.069c-2.612,0.194-5.247,0.058-7.827-0.405l0.088-0.492c2.539,0.454,5.132,0.589,7.702,0.398
					c0.185-0.014,0.403-0.039,0.645-0.067c1.39-0.161,3.485-0.403,4.655,0.823C150.734,170.817,150.968,172.081,150.687,173.792z"/>
				<path d="M148.381,169.084l-0.294-0.404c0.788-0.573,1.338-1.127,1.646-2.114c0.307-0.979,0.042-2.08-0.66-2.739
					c-0.585-0.55-1.417-0.783-2.22-0.975c-3.344-0.799-6.785-1.175-10.221-1.119l-0.009-0.5c3.493-0.052,6.962,0.323,10.346,1.132
					c0.868,0.208,1.771,0.463,2.446,1.097c0.838,0.788,1.157,2.095,0.794,3.253C149.862,167.829,149.227,168.468,148.381,169.084z"
					/>
				<path d="M148.134,163.057c-0.101,0-0.203-0.005-0.307-0.017l0.054-0.497c1.433,0.158,2.45-1.032,2.685-2.226
					c0.282-1.434-0.404-2.531-2.223-3.557c-0.973-0.55-2.08-0.884-3.15-1.207l-5.108-1.538l0.145-0.479l5.108,1.538
					c1.096,0.331,2.23,0.672,3.251,1.25c1.264,0.713,2.895,1.913,2.467,4.089C150.796,161.741,149.698,163.057,148.134,163.057z"/>
				<path d="M138.162,176.957c-0.746,0-1.492-0.059-2.234-0.215l0.103-0.489c1.855,0.389,3.777,0.143,5.637-0.095l5.306-0.68
					l0.063,0.496l-5.306,0.68C140.558,176.804,139.362,176.957,138.162,176.957z"/>
				<path style="fill:#588499;" d="M143.746,81.226H76.619c-2.084,0-3.773-1.689-3.773-3.773V50.296
					c0-2.084,1.689-3.773,3.773-3.773h67.127c2.084,0,3.773,1.689,3.773,3.773v27.156C147.519,79.536,145.83,81.226,143.746,81.226z
					"/>
				<path d="M142.793,64.632c0,1.297-1.051,2.349-2.348,2.349c-1.297,0-2.348-1.052-2.348-2.349c0-1.297,1.051-2.348,2.348-2.348
					C141.741,62.284,142.793,63.335,142.793,64.632z"/>
				<g>
					<path d="M99.873,81.454h-3.92c-0.813,0-1.472-0.659-1.472-1.472V59.854c0-0.813,0.659-1.472,1.472-1.472h3.92
						c0.813,0,1.472,0.659,1.472,1.472v20.128C101.345,80.795,100.686,81.454,99.873,81.454z"/>
					<path d="M122.941,81.454h-3.92c-0.813,0-1.472-0.659-1.472-1.472V59.854c0-0.813,0.659-1.472,1.472-1.472h3.92
						c0.813,0,1.472,0.659,1.472,1.472v20.128C124.412,80.795,123.754,81.454,122.941,81.454z"/>
					<path style="fill:#503444;" d="M112.369,93.08h-6.034c-6.651,0-12.044-5.392-12.044-12.044v-0.348h30.122v0.348
						C124.412,87.688,119.02,93.08,112.369,93.08z"/>
				</g>
				<path d="M115.319,93.257c0,3.665-2.971,6.636-6.636,6.636c-3.665,0-6.636-2.971-6.636-6.636s2.971-6.636,6.636-6.636
					C112.348,86.621,115.319,89.592,115.319,93.257z"/>
			</g>
			<g>
				<defs>
					<path id="SVGID_00000119108806379737040270000005839779498567137975_" d="M404.274,222.991
						c-0.824,1.07-1.649,2.141-2.473,3.211c1.344-1.745-30.504-17.271-33.46-18.343c-6.242-2.263-12.665-4.032-19.189-5.271
						c-4.942-0.939-14.267,0.467-18.464-1.693c5.107,2.628,9.369,6.8,12.052,11.797c4.424,8.239,5.105,17.927,5.905,27.03
						c0.489,5.566-1.658,13.069,0.759,18.069c0.155,0.321,0.41,0.676,0.751,1.061c4.941,5.555,28.192,17.294,35.761,23.615
						c1.371,1.145,3.445,0.618,4.137-1.029c7.145-16.994,15.337-33.512,22.678-50.435c0.313-0.721,0.631-1.474,0.594-2.259
						c-0.012-0.257-0.071-0.483-0.145-0.7C410.362,226.132,407.267,224.646,404.274,222.991z"/>
				</defs>
				<clipPath id="SVGID_00000075881883495748454370000006762842612656082309_">
					<use xlink:href="#SVGID_00000119108806379737040270000005839779498567137975_"  style="overflow:visible;"/>
				</clipPath>
				<path style="clip-path:url(#SVGID_00000075881883495748454370000006762842612656082309_);fill:#FAC34D;" d="M417.422,226.37
					c-1.776-3.802-6.32-6.833-10.608-6.261c-0.945,0.126-1.743,0.441-2.437,0.887c-1.789,3.396-3.578,6.792-5.383,10.18
					c-0.036,0.089-0.07,0.183-0.107,0.27c-5.368,12.81-10.736,25.621-16.103,38.431c-1.578,3.767-3.19,7.782-2.54,11.814
					c0.65,4.032,4.547,7.824,8.495,6.779c2.276-0.602,3.898-2.556,5.338-4.418c9.595-12.407,18.293-25.808,22.96-40.782
					C418.754,237.763,419.864,231.598,417.422,226.37z"/>
			</g>
			<g>
				<defs>
					<path id="SVGID_00000074418214306837621090000012455616741516715917_" d="M287.826,204.094
						c-0.579-1.496-0.858-4.528-2.527-5.286c-1.85-0.841-6.124,0.291-8.071,0.605c-20.05,3.238-39.079,9.602-57.648,17.797
						c-0.299-0.76-0.75-1.46-1.32-2.045c-2.699,1.072-5.576,2.331-7.862,4.112c3.549,10.418,6.768,20.817,9.509,31.493
						c0.691,2.692,9.231,30.932,8.611,31.308c0.04-0.024,0.08-0.047,0.12-0.072c15.503-9.418,31.577-12.888,45.623-24.285
						c6.788-5.508,14.245-18.546,16.602-27.292C293.21,221.725,291.137,212.635,287.826,204.094z"/>
				</defs>
				<clipPath id="SVGID_00000052815488129383718740000009486441976758347406_">
					<use xlink:href="#SVGID_00000074418214306837621090000012455616741516715917_"  style="overflow:visible;"/>
				</clipPath>
				<path style="clip-path:url(#SVGID_00000052815488129383718740000009486441976758347406_);fill:#FAC34D;" d="M223.823,226.704
					c-1.571-3.724-3.332-7.395-4.96-11.104c-0.231-0.525-0.473-1.067-0.897-1.453c-0.775-0.706-1.964-0.718-2.982-0.469
					c-3.049,0.744-5.343,3.397-6.49,6.318c-1.148,2.921-1.334,6.117-1.507,9.251c-0.227,4.098-0.453,8.197-0.68,12.295
					c-0.474,8.578,2.571,17.58,5.799,25.462c2.186,5.34,5.258,10.799,10.471,13.272c3.791,1.798,13.205,5.303,16.147,2.132
					c2.388-2.574-0.483-9.728-1.186-12.647c-2.519-10.458-6.45-20.516-9.409-30.852C226.94,234.76,225.501,230.682,223.823,226.704z
					"/>
			</g>
			<path style="fill:#503444;" d="M374.326,294.554c0.882-4.943,2.372-9.8,3.295-14.737c-9.011-6.867-16.051-20.173-19.826-31.054
				c-6.044-17.421-5.811-40.193-6.655-46.103c-3.054-0.539-6.125-0.981-9.178-1.524c-0.819,2.581-0.293,7.443-0.342,9.207
				c-0.469,16.946,1.108,34.219,7.298,50.129c2.572,6.611,5.871,12.954,10.02,18.716c4.117,5.717,9.044,10.847,14.781,14.954
				C373.918,294.284,374.125,294.415,374.326,294.554z"/>
			<path style="fill:#503444;" d="M277.784,198.572c-0.069,0.567-0.111,1.075-0.129,1.474c-0.636,13.746-2.727,27.414-6.221,40.713
				c-1.532,5.834-3.437,11.078-6.298,16.385c-1.595,2.959-3.298,5.997-5.281,8.676c-1.027,1.386-6.839,6.119-6.705,7.673
				c0.596,6.909-0.307,12.671,0.289,19.579c13.801-11.864,22.218-25.8,27.36-43.098c0.847-2.848,4.939-33.133,4.912-43.808
				c-0.005-1.842,0.379-5.955,0.018-9.393C283.085,197.391,280.443,198.027,277.784,198.572z"/>
			<path style="fill:#FFFFFF;" d="M296.638,216.731c-1.161-3.53-2.425-7.026-3.789-10.482c-1.085-2.712-1.524-6.427-2.903-9.156
				c-1.26,0.104-2.442,0.357-3.787,0.503c-1,0.108-1.98,0.077-2.938-0.099c-0.227,1.491-0.124,3.129-0.06,4.165
				c0.237,3.87,0.805,7.739,1.358,11.574c1.046,7.248,2.327,14.465,3.185,21.739c3.848-3.606,7.669-7.241,11.649-10.701
				C298.535,221.509,296.935,217.633,296.638,216.731z"/>
			<path style="fill:#FFFFFF;" d="M296.638,216.731c-1.161-3.53-2.425-7.026-3.789-10.482c-1.085-2.712-1.524-6.427-2.903-9.156
				c-1.26,0.104-2.442,0.357-3.787,0.503c-1,0.108-1.98,0.077-2.938-0.099c-0.227,1.491-0.124,3.129-0.06,4.165
				c0.237,3.87,0.805,7.739,1.358,11.574c1.046,7.248,2.327,14.465,3.185,21.739c3.848-3.606,7.669-7.241,11.649-10.701
				C298.535,221.509,296.935,217.633,296.638,216.731z"/>
			<path style="fill:#FFFFFF;" d="M290.404,274.105c0,1.248-1.012,2.26-2.26,2.26c-1.248,0-2.26-1.012-2.26-2.26
				c0-1.248,1.012-2.26,2.26-2.26C289.392,271.845,290.404,272.857,290.404,274.105z"/>
			<path style="fill:#FFFFFF;" d="M286.853,324.79c0,1.248-1.012,2.26-2.26,2.26c-1.248,0-2.26-1.012-2.26-2.26
				c0-1.248,1.012-2.26,2.26-2.26C285.841,322.531,286.853,323.542,286.853,324.79z"/>
			<path style="fill:#FFFFFF;" d="M288.467,296.704c0,1.248-1.012,2.26-2.26,2.26c-1.248,0-2.26-1.012-2.26-2.26
				c0-1.248,1.012-2.26,2.26-2.26C287.455,294.444,288.467,295.456,288.467,296.704z"/>
			<path style="fill:#FFFFFF;" d="M285.884,355.46c0,1.248-1.012,2.26-2.26,2.26c-1.248,0-2.26-1.012-2.26-2.26
				c0-1.248,1.012-2.26,2.26-2.26C284.872,353.2,285.884,354.212,285.884,355.46z"/>
			
				<rect x="185.702" y="234.584" transform="matrix(0.2421 -0.9703 0.9703 0.2421 -80.5586 366.5409)" width="17.265" height="0.5"/>
		</g>
		<g style="clip-path:url(#SVGID_00000142148715781477091930000017985375782678867623_);">
			<path style="fill:#2A695E;" d="M118.996,315.91c-0.757-0.792-1.322-1.196-1.572-0.996c-1.463,1.167-3.083,2.137-4.803,2.876
				c-0.348,0.15-0.72,0.293-1.097,0.247c-0.721-0.088-1.198-0.869-1.188-1.596c0.01-0.727,0.383-1.395,0.779-2.004
				c0.816-1.256,2.345-2.347,3.017-3.613c0.764-1.438,0.711-1.032-0.315-2.689c-0.377-0.609-4.934-7.242-4.91-7.256
				c-1.821,1.076-3.879,1.863-6.017,1.583c-0.25-0.033-0.5-0.243-0.403-0.529c0.738-2.18,1.888-4.198,3.369-5.933
				c-2.42-4.045-4.503-8.032-6.06-11.961c-6.713,6.203-12.254,13.613-16.437,21.733c4.535,0.782,9.663,2.973,10.206,7.964
				c0.015,0.134-0.088,0.302-0.207,0.361c-1.536,0.755-3.197,1.186-4.915,1.139c-2.884-0.079-5.55-1.353-8.094-2.594
				c-0.036-0.018-0.073-0.035-0.109-0.053c-2.29,5.665-3.94,11.588-4.911,17.615c0.6-0.065,1.2-0.119,1.803-0.146
				c1.654-0.073,3.45-0.026,4.973,0.696c1.078,0.511,2.825,1.973,1.886,3.308c-0.374,0.533-1.009,0.832-1.597,1.064
				c-0.816,0.322-1.684,0.513-2.545,0.669c-0.635,0.116-1.274,0.207-1.915,0.288c-1.102,0.189-2.23,0.292-3.363,0.363
				c-0.295,3.648-0.326,7.316-0.101,10.972c0.91-0.272,1.82-0.541,2.732-0.776c3.313-0.854,6.803-1.489,10.209-0.83
				c0.208,0.04,0.367,0.314,0.292,0.514c-0.644,1.73-1.954,3.047-3.462,4.064c-2.635,1.778-5.766,2.802-8.877,3.591
				c2.131,8.677,8.42,19.95,16.463,29.611c3.313-2.136,7.931-3.788,11.511-1.859c0.862,0.464,1.053,1.576,0.626,2.389
				c-1.374,2.621-4.632,3.92-7.429,4.722c15.15,15.651,34.332,23.869,44.531,1.777c6.132-13.284,4.686-27.643-0.949-40.812
				c-2.867-6.699-6.584-13.005-10.557-19.099C128.802,329.544,122.191,319.257,118.996,315.91z M86.701,325.893
				c-0.117-0.56-0.04-1.066,0.313-1.522c0.123-0.19,0.286-0.34,0.49-0.45c0.272-0.158,0.566-0.237,0.881-0.238
				c1.038-0.139,2.136,0.15,3.047,0.644c0.886,0.481,1.683,1.269,2.142,2.169c0.26,0.509,0.312,1.024,0.088,1.554
				c-0.196,0.465-0.609,0.912-1.132,1.011c-0.416,0.079-0.849,0.146-1.274,0.102c-0.242-0.025-0.452-0.062-0.656-0.11
				c-0.006,0.002-0.013,0.006-0.019,0.008c-0.465,0.128-0.924,0.035-1.345-0.176c-0.533-0.268-1.059-0.591-1.479-1.02
				C87.23,327.328,86.854,326.629,86.701,325.893z M97.414,367.154c-1.362,1.456-3.459,1.717-5.347,1.533
				c-0.993-0.097-1.976-0.269-2.955-0.457c-0.421-0.081-0.841-0.164-1.263-0.239c-0.172-0.03-0.378-0.039-0.551-0.087
				c-0.004,0-0.007-0.001-0.011-0.002c-0.067-0.007-0.135-0.014-0.202-0.021c-0.048-0.004-0.092-0.016-0.139-0.023
				c-0.691,0.11-1.415-0.242-1.802-0.842c-0.522-0.81-0.146-1.903,0.626-2.389c3.419-2.149,9.187-3.401,11.916,0.41
				C98.142,365.673,97.904,366.63,97.414,367.154z M98.08,299.043c-0.083,0.296-0.233,0.553-0.449,0.77
				c-0.118,0.091-0.236,0.182-0.353,0.273c-0.2,0.128-0.417,0.197-0.649,0.207c-0.232,0.052-0.464,0.042-0.696-0.031
				c-0.227-0.054-0.425-0.158-0.594-0.313c-0.19-0.123-0.34-0.286-0.45-0.49c-0.324-0.487-0.605-0.993-0.866-1.516
				c-0.158-0.272-0.237-0.566-0.239-0.881c0.021-0.155,0.042-0.31,0.062-0.464c0.083-0.296,0.233-0.553,0.449-0.771
				c0.118-0.091,0.235-0.182,0.353-0.273c0.201-0.128,0.417-0.197,0.649-0.207c0.232-0.052,0.464-0.042,0.696,0.031
				c0.227,0.054,0.425,0.158,0.594,0.313c0.19,0.123,0.34,0.286,0.45,0.49c0.261,0.522,0.542,1.029,0.866,1.516
				c0.158,0.272,0.237,0.566,0.238,0.882C98.121,298.734,98.1,298.888,98.08,299.043z"/>
			<path style="fill:#1D2144;" d="M128.797,417.028c-1.24-14.526-3.807-26.893-7.847-37.804c-1.458-3.937-3.176-7.855-4.837-11.646
				c-2.628-5.995-5.345-12.194-7.102-18.616c-1.226-4.483-2.016-9.182-2.779-13.726c-1.379-8.208-2.805-16.696-6.861-24.038
				l0.438-0.242c4.098,7.417,5.531,15.947,6.917,24.197c0.761,4.531,1.548,9.217,2.768,13.676
				c1.747,6.388,4.457,12.569,7.077,18.549c1.665,3.797,3.385,7.723,4.848,11.673c4.057,10.954,6.633,23.363,7.876,37.935
				L128.797,417.028z"/>
		</g>
		<g style="clip-path:url(#SVGID_00000142148715781477091930000017985375782678867623_);">
			<path style="fill:#2A695E;" d="M193.066,362.776c0.824-0.568,1.726-0.999,2.716-1.274c1.267-0.352,2.684-0.512,4.082-0.476
				c0.8-15.949-10.471-35.807-18.613-45.292c-1.599-1.863-3.303-3.685-5.099-5.427c-1.258,1.088-2.672,1.999-4.325,2.519
				c-1.475,0.465-2.769-0.961-2.426-2.221c0.439-1.613,0.865-3.291,1.522-4.866c-1.232-0.96-2.506-1.865-3.815-2.714
				c-0.094,0.189-0.194,0.376-0.284,0.568c-0.075,0.169-0.152,0.338-0.222,0.509c-0.094,0.306-0.263,0.572-0.507,0.797
				c-0.133,0.094-0.266,0.188-0.399,0.282c-0.448,0.265-1.015,0.287-1.52,0.182c-0.47-0.098-0.939-0.455-1.179-0.83
				c-0.236-0.369-0.37-0.977-0.199-1.392c0.291-0.707,0.621-1.4,0.968-2.084c-3.339-1.795-6.903-3.185-10.715-3.971
				c-2.542,6.503-4.611,13.232-5.941,20.048c2.318,0.368,4.626,0.79,6.864,1.466c1.05,0.317,1.625,1.227,1.378,2.221
				c-0.229,0.918-1.446,1.557-2.426,1.261c-2.102-0.635-4.266-1.044-6.441-1.396c-1.305,8.415-1.407,16.928,0.249,25.286
				c2.994,15.108,21.254,46.903,43.155,33.024c4.507-2.856,7.274-6.665,8.731-11.027c-0.294,0.003-0.587-0.011-0.881-0.028
				c-1.173,0.028-2.344-0.01-3.508-0.179c-0.57-0.083-1.165-0.239-1.654-0.524c-0.966-0.563-1.438-1.523-1.179-2.555
				C191.608,363.849,192.357,363.265,193.066,362.776z M173.088,371.266c-0.193,0.334-0.583,0.61-0.977,0.758
				c-0.02,0.012-0.036,0.027-0.056,0.039c-0.448,0.265-1.015,0.287-1.52,0.182c-0.47-0.098-0.939-0.455-1.179-0.83
				c-0.104-0.163-0.171-0.351-0.214-0.543c-0.201-0.219-0.389-0.448-0.547-0.692c-0.162-0.25-0.283-0.526-0.393-0.798
				c-0.109-0.27-0.14-0.573-0.168-0.855c-0.028-0.285,0.02-0.59,0.11-0.861c0.16-0.481,0.367-0.744,0.704-1.127
				c0.322-0.365,0.904-0.509,1.395-0.529c0.272-0.009,0.525,0.042,0.76,0.155c0.244,0.073,0.456,0.197,0.635,0.374
				c0.112,0.083,0.216,0.174,0.311,0.273c0.188,0.199,0.372,0.41,0.526,0.633c0.074,0.106,0.136,0.217,0.191,0.332
				c0.115,0.238,0.238,0.481,0.315,0.733c0.06,0.197,0.086,0.397,0.115,0.6c0.022,0.148,0.033,0.295,0.043,0.442
				c0.049,0.107,0.098,0.214,0.148,0.32C173.451,370.339,173.329,370.847,173.088,371.266z M188.974,358.8
				c-0.012,0.24-0.09,0.464-0.234,0.671c-0.23,0.418-0.532,0.805-0.815,1.194c-0.175,0.272-0.411,0.487-0.708,0.648
				c-0.157,0.061-0.314,0.121-0.471,0.182c-0.35,0.086-0.699,0.086-1.049,0c-0.157-0.061-0.314-0.121-0.471-0.182
				c-0.23-0.113-0.414-0.268-0.553-0.465c-0.174-0.174-0.292-0.379-0.353-0.614c-0.082-0.24-0.094-0.48-0.035-0.72
				c0.012-0.24,0.09-0.464,0.234-0.672c0.283-0.389,0.585-0.776,0.815-1.194c0.175-0.271,0.411-0.487,0.708-0.648
				c0.157-0.061,0.314-0.121,0.471-0.182c0.35-0.086,0.699-0.086,1.049,0c0.157,0.061,0.314,0.121,0.471,0.182
				c0.23,0.114,0.414,0.269,0.553,0.465c0.174,0.174,0.292,0.379,0.353,0.614C189.021,358.32,189.032,358.56,188.974,358.8z"/>
			<path style="fill:#1D2144;" d="M187.533,408.906c-6.321-10.449-7.719-22.688-9.072-34.524c-0.149-1.312-0.299-2.619-0.455-3.923
				c-2.1-17.578-5.143-30.721-9.867-42.616c-1.822-4.586-4.473-10.489-8.835-15.466c-0.412-0.471-0.862-0.957-1.429-1.269
				l0.24-0.438c0.639,0.351,1.124,0.872,1.565,1.376c4.413,5.034,7.087,10.988,8.924,15.611c4.677,11.775,7.822,25.357,9.898,42.742
				c0.156,1.304,0.306,2.612,0.456,3.925c1.346,11.782,2.738,23.967,9.002,34.321L187.533,408.906z"/>
		</g>
		<g style="clip-path:url(#SVGID_00000142148715781477091930000017985375782678867623_);">
			<path style="fill:#089C92;" d="M85.994,275.579c0.603,0.802,1.241,1.579,1.905,2.33c6.746,7.624,16.41,12.598,26.534,13.659
				c10.124,1.061,20.609-1.803,28.789-7.863c1.824-1.351,3.691-2.918,5.953-3.103c2.263-0.185,4.805,1.928,4.032,4.063
				c-0.334,0.922-1.169,1.564-1.677,2.403c-0.508,0.839-0.504,2.194,0.414,2.538c-0.665-0.249,5.253-3.842,6.168-3.959
				c3.172-0.406,5.321,0.977,7.751,2.755c1.959,1.434,6.278,7.738,8.728,7.463c1.962-0.221,3.775-1.183,5.73-1.46
				c1.954-0.277,4.344,0.475,4.857,2.381c0.765,2.844-2.937,4.649-5.822,5.24c5.269,5.169,9.814,11.075,13.462,17.492
				c2.423-1.309,4.971-2.651,7.725-2.676c2.754-0.025,5.735,1.748,6.069,4.481c-3.351,0.619-6.6,1.789-9.575,3.451
				c9.671,5.343,17.81,13.664,22.977,23.431c2.086,3.943,4.158,7.894,6.215,11.853c1.367,2.631,3.248,9.095,5.574,10.815
				c4.192,3.099,21.059,13.751,25.945,15.566c-3.203-19.791-21.426-47.13-28.368-65.898c-3.471-9.384-7.308-18.62-10.903-27.955
				c-1.334-3.464-2.026-6.769-3.996-9.862c-0.678-1.064-9.085-9.383-9.001-9.539c-0.841,1.56-1.768,3.208-3.336,4.035
				c-1.568,0.827-3.946,0.34-4.439-1.363c-0.266-0.918,0.072-1.893,0.425-2.781c0.895-2.25,1.918-4.45,3.062-6.584
				c-5.025-1.603-8.115-5.966-13.033-8.103c-12.979-5.639-33.333-6.178-47.188-3.955c-8.038,1.29-15.738,4.108-23.58,6.295
				c-11.692,3.261-23.721,5.122-35.717,6.977C82.679,270.538,84.184,273.172,85.994,275.579z"/>
			<path style="fill:#1D2144;" d="M245.424,369.839c-3.247-4.509-8.616-13.664-13.807-22.519
				c-5.186-8.844-10.548-17.989-13.781-22.479c-6.342-8.807-10.171-18.026-14.224-27.787l-0.264-0.636
				c-1.464-3.524-2.977-7.168-5.364-10.224c-3.21-4.113-7.736-6.872-12.112-9.539c-13.163-8.024-24.946-8.176-38.983-7.536
				c-3.229,0.146-6.24,0.826-9.427,1.546c-0.84,0.189-1.682,0.38-2.532,0.56c-4.461,0.948-8.996,1.16-12.896,1.284
				c-0.803,0.028-1.616-0.026-2.399-0.078c-0.916-0.061-1.864-0.123-2.804-0.058c-0.79,0.055-1.594,0.152-2.371,0.246
				c-1.327,0.161-2.7,0.323-4.071,0.288c-0.833-0.024-1.655-0.115-2.45-0.203c-1.388-0.153-2.698-0.298-4.06-0.119
				c-2.146,0.279-4.458,0.052-6.876-0.681l0.145-0.479c2.351,0.713,4.595,0.938,6.667,0.663c1.419-0.185,2.823-0.032,4.18,0.118
				c0.786,0.087,1.598,0.177,2.41,0.2c1.332,0.035,2.688-0.126,3.996-0.284c0.784-0.096,1.594-0.193,2.397-0.248
				c0.973-0.067,1.938-0.005,2.87,0.057c0.771,0.05,1.566,0.104,2.351,0.077c3.878-0.123,8.386-0.334,12.808-1.272
				c0.847-0.181,1.688-0.37,2.525-0.56c3.069-0.692,6.242-1.408,9.515-1.558c14.122-0.643,25.981-0.487,39.266,7.608
				c4.209,2.566,8.979,5.474,12.247,9.658c2.428,3.109,3.955,6.785,5.431,10.341l0.264,0.636
				c4.042,9.733,7.859,18.927,14.167,27.686c3.247,4.509,8.616,13.664,13.807,22.519c5.186,8.844,10.548,17.989,13.781,22.479
				L245.424,369.839z"/>
			<path style="fill:#73BAB1;" d="M128.297,346.445c-11.734,9.75-21.216,22.67-35.025,29.155
				c16.978,1.519,34.319,3.014,50.886-0.996c17.327-4.194,34.404-14.367,51.784-10.393c7.367,1.684,14.025,6.534,20.018,10.911
				c3.746,2.736,7.385,5.617,10.999,8.524c1.152,0.927,4.238,4.463,5.673,4.524c1.287,0.055,3.629-2.338,5.011-2.856
				c0.882-0.33,2.245-0.294,2.349,0.642c0.044,0.398-0.201,0.766-0.449,1.081c-0.998,1.268-2.243,2.342-3.643,3.145
				c7.699,6.32,14.888,13.242,23.919,17.924c5.756,2.984,1.873-6.602,7.502-6.211C235.173,327.708,167.083,314.22,128.297,346.445z"
				/>
			<path style="fill:#1D2144;" d="M269.187,403.106c-9.17-4.615-17.01-14.353-24.591-23.77c-4.254-5.283-8.272-10.274-12.335-14.122
				c-13.994-13.252-33.736-18.428-49.373-21.456c-5.099-0.987-10.523-1.74-15.646-0.569c-4.784,1.093-9.067,3.8-13.209,6.417
				c-0.51,0.322-1.019,0.645-1.529,0.963c-9.182,5.74-18.964,10.619-29.074,14.502l-0.18-0.467
				c10.081-3.871,19.834-8.735,28.989-14.459c0.508-0.318,1.017-0.64,1.526-0.962c4.178-2.64,8.498-5.37,13.365-6.482
				c5.214-1.189,10.701-0.431,15.853,0.567c15.704,3.041,35.535,8.243,49.622,21.583c4.088,3.871,8.116,8.875,12.381,14.172
				c7.548,9.375,15.354,19.07,24.426,23.636L269.187,403.106z"/>
			<path style="fill:#1D2144;" d="M163.16,362.882c-0.514,0-1.039-0.135-1.475-0.395c-0.576-0.343-0.938-0.859-1.019-1.455
				c-0.082-0.607,0.131-1.211,0.302-1.695l0,0c0.125-0.355,0.28-0.913,0.458-1.56c0.865-3.135,2.322-8.387,5.01-7.757
				c0.73,0.168,1.269,0.599,1.599,1.278c1.164,2.393-0.655,7.265-1.205,8.438c-0.748,1.592-1.64,2.566-2.728,2.979
				C163.811,362.827,163.487,362.882,163.16,362.882z M161.441,359.503c-0.162,0.457-0.344,0.975-0.279,1.463
				c0.06,0.44,0.336,0.828,0.779,1.092c0.588,0.351,1.367,0.424,1.986,0.191c0.96-0.364,1.762-1.255,2.452-2.725
				c0.785-1.673,2.179-6.012,1.208-8.007c-0.265-0.545-0.678-0.876-1.262-1.011c-2.228-0.501-3.652,4.636-4.416,7.403
				C161.728,358.566,161.572,359.132,161.441,359.503L161.441,359.503z"/>
			<path style="fill:#1D2144;" d="M144.469,368.784c-0.119,0-0.235-0.011-0.35-0.034c-1.039-0.211-1.621-1.346-1.584-2.321
				c0.038-0.99,0.548-1.867,1.023-2.611c0.453-0.707,1.18-1.427,1.898-1.877l0,0c0.836-0.525,1.572-0.649,2.13-0.358
				c0.589,0.308,0.915,1.048,0.968,2.2c0.07,1.496-1.142,3.311-2.317,4.259C145.63,368.533,145.026,368.784,144.469,368.784z
				 M146.935,361.93c-0.442,0-0.923,0.252-1.213,0.435l0,0c-0.66,0.413-1.327,1.073-1.742,1.723
				c-0.439,0.688-0.912,1.496-0.944,2.361c-0.03,0.767,0.405,1.653,1.184,1.812c0.628,0.135,1.274-0.26,1.705-0.607
				c1.095-0.884,2.192-2.563,2.132-3.847c-0.044-0.948-0.287-1.563-0.701-1.78C147.225,361.957,147.082,361.93,146.935,361.93z"/>
			<path style="fill:#1D2144;" d="M111.588,372.449c-0.187,0-0.374-0.007-0.561-0.02c-0.844-0.057-1.396-0.307-1.688-0.763
				c-0.196-0.306-0.252-0.66-0.163-1.023c0.186-0.752,0.935-1.409,1.575-1.773c1.42-0.807,2.936-1.43,4.515-1.854l-0.002-0.12
				c0.16-0.003,0.324-0.003,0.493-0.005c0.042-0.011,0.085-0.021,0.128-0.03l0.008,0.033c0.462,0.012,0.94,0.069,1.385,0.272
				c0.657,0.301,1.237,1.019,1.074,1.811c-0.095,0.461-0.418,0.813-0.721,1.099C116.019,371.582,113.796,372.449,111.588,372.449z
				 M115.811,367.391c-1.688,0.413-3.306,1.057-4.813,1.914c-0.565,0.321-1.198,0.897-1.336,1.458
				c-0.058,0.233-0.025,0.44,0.099,0.634c0.201,0.313,0.626,0.488,1.301,0.534c2.252,0.154,4.58-0.679,6.227-2.222
				c0.246-0.23,0.506-0.511,0.573-0.834c0.108-0.53-0.327-1.042-0.792-1.255C116.685,367.445,116.243,367.399,115.811,367.391z"/>
			<path style="fill:#1D2144;" d="M206.056,363.054c-0.276,0-0.533-0.014-0.765-0.042c-0.317-0.037-0.71-0.121-0.93-0.442l0,0
				c-0.223-0.326-0.251-0.77-0.083-1.316c0.539-1.752,3.013-4.292,4.09-4.716c1.322-0.521,2.949-0.344,3.871,0.422
				c0.467,0.388,0.976,1.102,0.746,2.299C212.476,361.917,208.528,363.054,206.056,363.054z M204.775,362.288
				c0.105,0.153,0.363,0.202,0.576,0.228c2.245,0.265,6.656-0.803,7.145-3.352c0.147-0.77-0.046-1.382-0.574-1.82
				c-0.777-0.645-2.224-0.791-3.369-0.342c-0.874,0.345-3.29,2.753-3.795,4.398C204.635,361.794,204.641,362.093,204.775,362.288
				L204.775,362.288z"/>
			<path style="fill:#1D2144;" d="M201.607,345.975l-0.143-0.479c0.011-0.004,0.021-0.007,0.032-0.01
				c-1.851-1.23-3.31-3.032-4.124-5.101c-0.128-0.326-0.235-0.706-0.054-1.052c0.154-0.295,0.461-0.433,0.678-0.511
				c1.368-0.49,3.056-0.108,4.401,0.999c1.801,1.48,2.569,2.728,2.35,3.813C204.544,344.643,203.516,345.408,201.607,345.975z
				 M199.245,339.11c-0.358,0-0.722,0.056-1.08,0.185c-0.22,0.079-0.349,0.165-0.405,0.272c-0.087,0.167-0.01,0.415,0.077,0.636
				c0.808,2.052,2.281,3.829,4.147,5.004l-0.098,0.155c1.426-0.483,2.223-1.097,2.37-1.825c0.177-0.875-0.555-1.994-2.177-3.327
				C201.367,339.622,200.328,339.11,199.245,339.11z"/>
			<path style="fill:#1D2144;" d="M142.948,351.916c-2.323,0-4.607-0.602-6.634-1.75c-0.377-0.215-0.78-0.495-0.904-0.947
				c-0.108-0.398,0.031-0.866,0.384-1.283c0.875-1.039,2.488-1.423,4.425-1.061c1.514,0.285,2.996,0.881,4.285,1.723l-0.168,0.258
				c0.249,0.238,0.479,0.51,0.636,0.836c0.271,0.564,0.267,1.375-0.263,1.833c-0.358,0.311-0.836,0.368-1.299,0.384
				C143.256,351.913,143.102,351.916,142.948,351.916z M138.845,347.244c-0.908,0-1.986,0.203-2.669,1.014
				c-0.116,0.137-0.375,0.492-0.284,0.829c0.075,0.274,0.366,0.472,0.668,0.644c2.081,1.18,4.447,1.756,6.832,1.678
				c0.372-0.013,0.748-0.053,0.989-0.262c0.337-0.291,0.323-0.855,0.139-1.238c-0.22-0.459-0.657-0.818-1.043-1.136l0.117-0.143
				c-1.076-0.604-2.261-1.036-3.468-1.263C139.825,347.31,139.363,347.244,138.845,347.244z"/>
			<path style="fill:#1D2144;" d="M149.175,347.542c-0.245,0-0.495-0.054-0.728-0.117c-1.787-0.484-3.458-1.276-4.967-2.354
				c-0.538-0.384-1.166-0.923-1.251-1.683c-0.113-0.995,0.753-1.784,1.606-2.097c1.182-0.436,2.645-0.3,4.013,0.364
				c1.229,0.596,2.254,1.513,3.2,2.4l-0.216,0.229l0.034,0.002c-0.036,0.769-0.191,1.524-0.46,2.247
				c-0.115,0.307-0.261,0.617-0.551,0.814C149.647,347.492,149.413,347.542,149.175,347.542z M145.314,341.54
				c-0.461,0-0.903,0.072-1.306,0.22c-0.696,0.256-1.36,0.877-1.281,1.571c0.063,0.564,0.592,1.009,1.045,1.333
				c1.46,1.043,3.077,1.81,4.807,2.278c0.348,0.095,0.739,0.169,0.996-0.008c0.175-0.118,0.278-0.346,0.363-0.575
				c0.251-0.674,0.396-1.379,0.43-2.096l0.18,0.009c-0.873-0.814-1.818-1.635-2.917-2.168
				C146.86,341.731,146.061,341.54,145.314,341.54z"/>
			<path style="fill:#1D2144;" d="M126.537,283.37c-0.026,0-0.052,0-0.079-0.001c-0.685-0.02-1.495-0.382-1.76-1.146
				c-0.305-0.879,0.202-1.815,1.507-2.784l0,0c1.516-1.125,3.087-2.06,4.835-3.078c0.477-0.277,2.104-1.137,3.028-0.554
				c0.433,0.274,0.62,0.8,0.555,1.563c-0.053,0.611-0.414,1.138-0.722,1.528c-1.235,1.562-3.028,2.855-5.479,3.958
				C127.865,283.106,127.217,283.37,126.537,283.37z M126.503,279.841c-1.109,0.823-1.557,1.569-1.332,2.218
				c0.186,0.536,0.806,0.796,1.303,0.811c0.604,0.021,1.192-0.223,1.743-0.47c2.377-1.068,4.108-2.315,5.292-3.813
				c0.282-0.356,0.576-0.785,0.617-1.261c0.048-0.562-0.061-0.931-0.324-1.097c-0.513-0.324-1.63,0.05-2.509,0.563
				C129.556,277.803,127.998,278.731,126.503,279.841L126.503,279.841z"/>
			<path style="fill:#1D2144;" d="M112.835,281.777c-0.382,0-0.762-0.055-1.133-0.177c-0.229-0.075-0.556-0.211-0.742-0.513v-0.001
				c-0.175-0.283-0.172-0.646,0.008-1.08c0.517-1.241,2.553-2.978,3.328-3.158c0.307-0.072,0.615-0.076,0.917-0.068
				c0.344-0.002,0.67,0.003,0.96-0.106c0.179-0.066,0.349-0.178,0.53-0.295c0.312-0.203,0.633-0.412,1.041-0.426
				c0.313-0.004,0.627,0.114,0.879,0.352c0.294,0.277,0.475,0.679,0.484,1.074c0.019,0.826-0.54,1.449-0.875,1.746
				C117.035,280.188,114.902,281.777,112.835,281.777z M111.385,280.825c0.077,0.124,0.227,0.22,0.473,0.301
				c2.14,0.704,4.704-1.187,6.041-2.374c0.46-0.409,0.717-0.905,0.707-1.361c-0.006-0.261-0.131-0.537-0.327-0.723
				c-0.109-0.103-0.294-0.225-0.52-0.215c-0.268,0.009-0.519,0.172-0.784,0.345c-0.195,0.127-0.397,0.258-0.626,0.345
				c-0.375,0.142-0.76,0.138-1.14,0.138c-0.286-0.006-0.55-0.003-0.8,0.055c-0.59,0.138-2.502,1.719-2.98,2.864
				C111.35,280.388,111.279,280.651,111.385,280.825z"/>
			<path style="fill:#1D2144;" d="M175.337,287.695c-0.404,0-0.675-0.079-0.96-0.161c-0.226-0.065-0.458-0.132-0.792-0.17
				c-0.511-0.057-0.947-0.365-1.228-0.866c-0.344-0.613-0.382-1.401-0.098-2.009c0.532-1.138,1.776-1.671,2.725-1.918
				c0.384-0.1,0.775-0.174,1.166-0.248c0.68-0.129,1.322-0.251,1.931-0.503c0.142-0.06,0.288-0.125,0.437-0.192
				c0.853-0.386,1.82-0.822,2.633-0.253c0.694,0.485,0.769,1.482,0.487,2.174c-0.286,0.704-0.859,1.223-1.364,1.681
				c-1.376,1.244-2.867,2.456-4.639,2.456c-0.017,0-0.033,0-0.049,0C175.497,287.692,175.414,287.695,175.337,287.695z
				 M180.258,281.605c-0.473,0-1.01,0.242-1.535,0.479c-0.152,0.068-0.303,0.137-0.45,0.197c-0.656,0.272-1.354,0.405-2.029,0.533
				c-0.38,0.072-0.76,0.144-1.133,0.241c-0.846,0.22-1.948,0.684-2.398,1.645c-0.215,0.46-0.183,1.084,0.081,1.554
				c0.2,0.356,0.501,0.575,0.847,0.614c0.375,0.042,0.641,0.118,0.875,0.186c0.323,0.094,0.579,0.165,1.044,0.133l0.022-0.001
				c0.018,0,0.036,0,0.054,0c1.594,0,2.945-1.101,4.302-2.327c0.465-0.422,0.994-0.899,1.237-1.497
				c0.208-0.514,0.17-1.24-0.311-1.576C180.681,281.657,180.476,281.605,180.258,281.605z"/>
			<path style="fill:#1D2144;" d="M186.787,271.52c-0.202,0-0.434-0.04-0.698-0.138c-0.681-0.252-1.151-0.849-1.445-1.276
				c-1.46-2.115-1.791-3.892-0.983-5.281l0,0c0.526-0.902,1.804-1.516,2.799-0.952c0.582,0.33,0.896,0.953,1.125,1.52
				c0.322,0.792,0.57,1.619,0.739,2.458c0.184,0.92,0.165,2.645-0.672,3.358C187.466,271.367,187.184,271.52,186.787,271.52z
				 M184.093,265.076c-0.702,1.207-0.378,2.804,0.962,4.746c0.256,0.371,0.659,0.888,1.208,1.091
				c0.453,0.167,0.801,0.141,1.064-0.085c0.603-0.515,0.681-2.004,0.506-2.881c-0.162-0.808-0.402-1.604-0.711-2.368
				c-0.198-0.486-0.46-1.018-0.909-1.271C185.49,263.896,184.5,264.376,184.093,265.076L184.093,265.076z"/>
			<path style="fill:#1D2144;" d="M159.844,266.247c-0.233,0-0.475-0.061-0.721-0.182h0c-1.527-0.754-2.873-1.874-3.89-3.238
				c-0.462-0.619-1.453-2.205-0.682-3.545c0.585-1.016,1.878-1.269,2.803-1.174c1.446,0.146,3.095,1.356,4.011,2.942
				c0.692,1.199,0.829,2.4,0.387,3.383c-0.279,0.62-0.734,1.476-1.457,1.735C160.148,266.222,159.998,266.247,159.844,266.247z
				 M159.344,265.617c0.286,0.143,0.541,0.167,0.781,0.082c0.409-0.146,0.792-0.628,1.17-1.47c0.375-0.832,0.245-1.872-0.364-2.928
				c-0.827-1.432-2.353-2.565-3.628-2.694c-0.777-0.08-1.854,0.116-2.319,0.926c-0.623,1.082,0.247,2.456,0.649,2.996
				C156.604,263.83,157.887,264.898,159.344,265.617L159.344,265.617z"/>
			<path style="fill:#1D2144;" d="M169.252,266.503c-0.411,0-0.955-0.164-1.652-0.681c-1.366-1.011-2.287-2.697-2.404-4.4
				c-0.075-1.089,0.284-1.959,0.959-2.326c0.537-0.293,1.252-0.258,2.014,0.098l0,0c1.681,0.784,2.598,3.03,2.635,4.843
				c0.023,1.156-0.321,2.004-0.945,2.326C169.703,266.443,169.502,266.503,169.252,266.503z M166.971,259.399
				c-0.197,0-0.396,0.038-0.578,0.137c-0.739,0.402-0.722,1.52-0.699,1.852c0.107,1.563,0.951,3.107,2.203,4.033
				c0.725,0.536,1.326,0.71,1.731,0.498c0.441-0.229,0.693-0.928,0.674-1.871c-0.033-1.618-0.866-3.71-2.346-4.4l0,0
				C167.723,259.537,167.351,259.399,166.971,259.399z"/>
			<path style="fill:#1D2144;" d="M216.3,310.995c-0.366,0-0.839-0.199-1.211-1.04v-0.001c-0.042-0.096-0.084-0.202-0.125-0.315
				c-0.522-1.484-0.464-5.492,0.844-6.821c0.357-0.363,0.934-0.668,1.482-0.445c0.265,0.11,0.453,0.321,0.602,0.514
				c0.993,1.283,1.375,3.097,1.021,4.854c-0.178,0.883-1.274,3.115-2.5,3.25C216.377,310.993,216.339,310.995,216.3,310.995z
				 M215.546,309.753c0.232,0.524,0.51,0.768,0.812,0.739c0.834-0.092,1.882-1.944,2.064-2.853c0.325-1.615-0.021-3.278-0.926-4.447
				c-0.109-0.141-0.241-0.293-0.398-0.358c-0.319-0.13-0.702,0.098-0.934,0.333c-1.077,1.096-1.246,4.836-0.729,6.305
				C215.471,309.573,215.508,309.667,215.546,309.753L215.546,309.753z"/>
			<path style="fill:#1D2144;" d="M195.987,305.877c-0.84,0-1.681-0.072-2.511-0.217c-0.468-0.081-0.929-0.185-1.371-0.306
				c-0.458-0.126-1.086-0.362-1.249-0.951c-0.138-0.495,0.149-0.979,0.496-1.238c0.332-0.249,0.725-0.353,1.131-0.444h0
				c3.078-0.691,5.481-0.61,7.147,0.24c0.761,0.389,1.1,0.814,1.007,1.267c-0.211,1.038-2.774,1.553-3.634,1.613
				C196.667,305.866,196.327,305.877,195.987,305.877z M192.593,303.209c-0.365,0.082-0.688,0.166-0.941,0.356
				c-0.204,0.152-0.389,0.438-0.314,0.704c0.073,0.263,0.359,0.453,0.9,0.603c0.426,0.117,0.872,0.217,1.323,0.296
				c1.127,0.195,2.275,0.254,3.408,0.175c1.147-0.081,3.068-0.67,3.179-1.215c0.04-0.196-0.231-0.459-0.745-0.722
				C197.867,302.621,195.512,302.553,192.593,303.209L192.593,303.209z"/>
			<path style="fill:#1D2144;" d="M211.049,302.046c-0.16,0-0.307-0.038-0.441-0.115c-0.831-0.479-0.708-2.23-0.616-2.962
				c0.213-1.703,1.035-3.319,2.255-4.435l0,0c0.443-0.405,1.135-0.729,1.623-0.299c0.231,0.204,0.303,0.497,0.347,0.783
				c0.247,1.631-0.01,3.349-0.721,4.837c-0.361,0.755-0.777,1.305-1.271,1.682C211.779,301.876,211.386,302.046,211.049,302.046z
				 M212.585,294.904c-1.133,1.036-1.897,2.541-2.096,4.128c-0.155,1.237-0.003,2.251,0.37,2.466
				c0.279,0.162,0.732-0.105,1.064-0.358c0.43-0.327,0.797-0.817,1.123-1.499c0.669-1.398,0.91-3.014,0.678-4.547
				c-0.029-0.192-0.072-0.385-0.183-0.482C213.285,294.385,212.803,294.704,212.585,294.904L212.585,294.904z"/>
		</g>
		<g style="clip-path:url(#SVGID_00000142148715781477091930000017985375782678867623_);">
			<path style="fill:#73BAB1;" d="M400.567,365.841c-0.472-0.273-0.762-0.786-1.025-1.271c-1.458-2.697-2.917-5.394-4.375-8.091
				c-1.06-1.961-2.134-3.959-2.562-6.147c-0.777-3.972,0.656-8.007,2.067-11.8c4.23-11.376,8.46-22.752,12.69-34.128
				c1.632,0.759,3.293,1.435,4.644,2.583c-0.055-1.191-0.516-2.26-0.871-3.409c-0.364-1.18-0.569-2.496-0.057-3.619
				c1.177,0.983,2.354,1.966,3.531,2.949c-0.269-1.632-0.572-3.259-0.909-4.878c2.165-3.674,5.103-6.836,7.882-10.047
				c3.397-3.926,6.75-7.888,10.15-11.811c0.779,1.063,1.85,1.909,3.064,2.421c-0.1-1.552-0.503-3.084-1.182-4.484
				c-0.136-0.281-0.287-0.581-0.237-0.889c0.048-0.297,0.273-0.529,0.489-0.739c2.6-2.538,4.732-5.275,6.647-8.341
				c2.236-3.578,5.165-6.722,8.577-9.204c-0.972,2.626-0.11,5.53-0.036,8.33c0.082,3.105-0.689,6.14-0.767,9.201
				c-0.091,3.58-0.457,7.135-1.188,10.643c-0.058,0.276-0.12,0.559-0.273,0.796c-0.795,1.231-4.722,0.092-4.669,2.028
				c0.035,1.298,5.285,2.744,5.354,2.351c-0.306,1.759-0.703,3.679-2.1,4.791c-1.914,1.523-4.964,0.916-6.793,2.54
				c1.91,0.63,4.968,0.052,4.595,2.623c-0.248,1.709-2.92,4.382-4.03,5.661c-1.303,1.501-2.83,2.79-4.192,4.237
				c-2.144,2.278-3.3,5.22-5.359,7.486c-2.092,2.304-4.353,4.232-5.967,6.984c-0.151,0.257-0.31,0.523-0.562,0.682
				c-0.2,0.126-0.439,0.172-0.672,0.214c-1.642,0.303-3.284,0.605-4.927,0.908c-0.331,0.061-0.735,0.193-0.782,0.527
				c-0.102,0.545,4.959,1.186,5.446,1.231c-0.605,1.016-1.641,1.522-2.226,2.626c-0.808,1.525-1.5,3.123-2.206,4.698
				c-1.23,2.744-2.398,5.516-3.668,8.243c-1.144,2.457-2.303,4.966-2.623,7.658c-0.304,2.557,0.166,5.135,0.635,7.666
				c1.897,10.248,3.794,20.496,5.691,30.745c1.297,7.009,6.126,19.745,4.204,26.296c-6.752-2.767-7.588-12.566-9.484-18.611
				c-2.865-9.135-5.915-18.867-10.594-27.254c0.987-0.09,1.928-0.61,2.528-1.399c-0.339-1.35-2.523-0.333-3.771-0.949
				C400.624,365.873,400.595,365.858,400.567,365.841z"/>
			<path style="fill:#1D2144;" d="M420.797,415.659l-12.768-49.814c-1.222-4.766-2.484-9.692-2.777-14.713
				c-0.634-10.874,3.228-22.671,11.804-36.064c2.528-3.947,5.292-7.836,7.964-11.596c4.632-6.518,9.422-13.257,13.108-20.483
				l0.445,0.227c-3.703,7.26-8.504,14.014-13.146,20.546c-2.67,3.756-5.43,7.64-7.95,11.576
				c-8.519,13.302-12.354,25.001-11.726,35.766c0.289,4.973,1.546,9.876,2.762,14.617l12.768,49.814L420.797,415.659z"/>
			<path style="fill:#1D2144;" d="M410.047,320.452c-0.051,0-0.103-0.002-0.155-0.006c-1.433-0.109-2.39-2.532-2.576-3.402
				c-0.157-0.731-0.012-1.557,0.369-2.102c0.264-0.376,0.625-0.606,1.045-0.665c0.773-0.104,1.398,0.396,1.71,0.705l0,0
				c0.767,0.758,1.509,3.335,0.917,4.636C411.107,320.166,410.655,320.452,410.047,320.452z M408.937,314.764
				c-0.046,0-0.092,0.003-0.139,0.01c-0.282,0.039-0.519,0.192-0.703,0.456c-0.301,0.43-0.418,1.117-0.291,1.709
				c0.217,1.011,1.138,2.934,2.126,3.01c0.464,0.039,0.79-0.14,0.972-0.537c0.499-1.096-0.17-3.437-0.813-4.073l0,0
				C409.862,315.116,409.429,314.764,408.937,314.764z"/>
			<path style="fill:#1D2144;" d="M407.881,327.653c-0.313,0-0.646-0.137-0.967-0.407c-0.474-0.4-0.964-0.814-1.36-1.323
				c-0.108-0.138-0.208-0.282-0.301-0.434c-0.147-0.241-0.87-1.483-0.568-2.217c0.097-0.233,0.283-0.39,0.541-0.453
				c0.262-0.063,0.592-0.032,1.008,0.094c1.042,0.316,2.125,1.45,2.613,2.356c0.392,0.727,0.249,1.69-0.316,2.149
				C408.337,327.576,408.115,327.653,407.881,327.653z M405.513,323.286c-0.071,0-0.127,0.008-0.168,0.019l0,0
				c-0.131,0.031-0.174,0.101-0.197,0.157c-0.128,0.311,0.096,1.053,0.532,1.766c0.082,0.135,0.172,0.264,0.269,0.387
				c0.364,0.468,0.834,0.865,1.288,1.248c0.266,0.225,0.652,0.435,0.979,0.167c0.333-0.27,0.494-0.962,0.192-1.523
				c-0.448-0.829-1.438-1.848-2.319-2.115C405.828,323.312,405.643,323.286,405.513,323.286z"/>
			<path style="fill:#1D2144;" d="M423.796,301.034c-0.084,0-0.163-0.013-0.236-0.032c-1.177-0.321-2.155-3.083-2.023-4.107l0,0
				c0.066-0.517,0.257-0.87,0.565-1.05c0.398-0.232,0.945-0.133,1.464,0.264c0.673,0.514,1.172,1.246,1.404,2.062
				c0.133,0.463,0.232,1.154-0.049,1.814C424.568,300.813,424.145,301.034,423.796,301.034z M422.578,296.219
				c-0.081,0-0.157,0.018-0.225,0.057c-0.167,0.098-0.275,0.327-0.321,0.683l0,0c-0.116,0.894,0.823,3.333,1.659,3.561
				c0.266,0.064,0.53-0.173,0.77-0.73c0.224-0.525,0.139-1.096,0.028-1.482c-0.204-0.712-0.64-1.352-1.228-1.802
				C423.062,296.352,422.802,296.219,422.578,296.219z"/>
			<path style="fill:#1D2144;" d="M423.593,312.949c-0.552,0-1.058-0.172-1.265-0.747c-0.118-0.329-0.101-0.625,0.053-0.879
				c0.361-0.6,1.392-0.747,2.007-0.836l0.155-0.022c0.407-0.063,0.839-0.097,1.242,0.068c0.425,0.175,0.812,0.643,0.693,1.167
				c-0.126,0.557-0.703,0.784-1.191,0.921l-0.156,0.044C424.743,312.777,424.146,312.949,423.593,312.949z M425.116,310.912
				c-0.163,0-0.332,0.021-0.497,0.046l-0.16,0.023c-0.493,0.07-1.411,0.202-1.65,0.6c-0.072,0.12-0.075,0.268-0.01,0.451
				c0.224,0.624,1.187,0.441,2.193,0.151l0.16-0.046c0.354-0.099,0.771-0.25,0.838-0.549c0.056-0.244-0.162-0.498-0.395-0.594
				C425.448,310.935,425.285,310.912,425.116,310.912z"/>
			<path style="fill:#1D2144;" d="M422.68,317.945c-0.206,0-0.407-0.009-0.599-0.017c-0.546-0.024-1.298-0.129-1.535-0.761
				c-0.196-0.521,0.121-1.048,0.483-1.365v-0.001c0.732-0.641,2.433-0.995,3.28-0.166c0.376,0.367,0.523,0.832,0.402,1.276
				c-0.122,0.451-0.507,0.799-1.028,0.928C423.351,317.922,423.009,317.945,422.68,317.945z M421.36,316.178
				c-0.244,0.214-0.445,0.548-0.345,0.813c0.1,0.266,0.456,0.409,1.088,0.437c0.486,0.021,0.989,0.043,1.46-0.073
				c0.344-0.086,0.593-0.3,0.667-0.574c0.071-0.264-0.026-0.551-0.27-0.788C423.336,315.382,421.939,315.668,421.36,316.178
				L421.36,316.178z"/>
			<path style="fill:#1D2144;" d="M408.762,343.492c-0.209,0-0.441-0.029-0.649-0.148c-0.211-0.12-0.364-0.346-0.4-0.588
				c-0.029-0.201,0.025-0.388,0.155-0.525l0.163,0.154l-0.215-0.263c0.729-0.596,1.65-0.938,2.594-0.965
				c0.131-0.005,0.268,0.001,0.404,0.057c0.331,0.138,0.464,0.503,0.448,0.804c-0.023,0.475-0.352,0.922-0.856,1.167
				c-0.429,0.21-0.914,0.253-1.304,0.288C409.004,343.482,408.887,343.492,408.762,343.492z M408.149,342.496l0.082,0.078
				c-0.022,0.023-0.03,0.061-0.023,0.107c0.013,0.091,0.076,0.185,0.153,0.229c0.18,0.101,0.428,0.09,0.696,0.064
				c0.367-0.033,0.783-0.07,1.129-0.239c0.337-0.163,0.563-0.454,0.576-0.743c0.008-0.144-0.053-0.279-0.14-0.316
				c-0.05-0.02-0.125-0.021-0.199-0.019C409.597,341.68,408.789,341.978,408.149,342.496z"/>
			<path style="fill:#089C92;" d="M476.662,322.89c-0.633,0.68-1.255,1.371-1.91,2.03c-3.885,3.908-8.2,7.398-12.787,10.448
				c-0.819,0.545-2.501,2.11-3.467,2.203c-0.885,0.085-2.458-0.985-3.327-1.416c-2.007-0.997-4.326-2.06-6.63-1.503
				c2.584,1.922,5.168,3.844,7.753,5.765c-2.851,3.047-4.446,7.97-5.901,11.786c-8.787,23.046-17.599,46.175-23.275,70.177
				c1.321-5.587-4.173-18.084-5.042-24.142c-1.064-7.412-1.915-14.73-2.198-22.17c-0.533-13.975-4.058-28.915,1.624-42.312
				c3.309-7.801,9.427-13.999,15.24-20.164c5.662-6.005,11.16-12.165,16.486-18.47c2.664-3.153,5.251-6.365,7.858-9.565
				c2.052-2.519,4.583-4.573,6.288-7.377c1.824,2.968,3.876,5.795,6.132,8.449c0.791-3.989-1.802-7.782-4.255-11.025
				c2.46-3.544,4.694-7.245,6.684-11.073c0.926,1.109,2.136,1.978,3.483,2.502c-0.025-2.129-0.623-4.248-1.715-6.075
				c5.43-8.128,8.828-17.588,15.831-24.522c5.139-5.088,10.279-10.177,15.418-15.265c-0.822,8.439-1.191,16.923-1.104,25.402
				c0.005,0.473,0.003,0.977-0.251,1.376c-0.365,0.574-1.109,0.737-1.757,0.946c-1.607,0.52-3.129,1.855-3.152,3.544
				c-0.023,1.689,2.2,3.14,3.465,2.022c-1.355,15.661-5.075,33.298-12.579,47.206c-1.377,2.552-3,4.958-4.707,7.299
				c-1.54,2.112-2.947,4.602-4.639,6.56c-0.579,0.67-1.358,1.21-2.237,1.323c-0.807,0.104-1.615-0.153-2.428-0.188
				c-0.938-0.039-1.874,0.224-2.706,0.658c0.689,0.146,1.25,0.624,1.847,0.999c0.755,0.473,1.47,0.484,2.321,0.444
				c-1.298,0.402-2.195,1.942-3.136,2.861C477.466,322.034,477.062,322.46,476.662,322.89z"/>
			<path style="fill:#1D2144;" d="M427.309,439.984l-0.49-0.1c0.951-4.724,1.032-9.649,1.11-14.413l0.032-1.824
				c0.567-29.364,5.314-58.824,9.905-87.314c0.348-2.153,0.74-4.595,1.976-6.615c1.304-2.136,3.398-3.606,5.424-5.027l0.319-0.224
				c6.426-4.518,12.174-9.424,17.084-14.581c13.214-13.883,22.08-31.177,30.655-47.902l8.128-15.852
				c0.594-1.158,1.219-2.235,2.336-2.694l0.189,0.463c-0.959,0.394-1.531,1.388-2.08,2.459l-8.128,15.852
				c-8.592,16.757-17.476,34.084-30.739,48.019c-4.932,5.182-10.705,10.108-17.158,14.645l-0.319,0.225
				c-1.983,1.392-4.035,2.831-5.285,4.878c-1.183,1.938-1.567,4.327-1.907,6.436c-4.588,28.473-9.332,57.915-9.899,87.244
				l-0.032,1.823C428.35,430.266,428.269,435.215,427.309,439.984z"/>
			<path style="fill:#1D2144;" d="M427.004,364.69c-0.517,0-0.998-0.202-1.435-0.601c-1.669-1.528-2.221-5.572-2.232-6.873
				c-0.004-0.433,0.03-0.927,0.317-1.31c0.509-0.678,1.503-0.658,2.265-0.339c1.789,0.753,3.266,4.587,3.062,6.899
				c-0.106,1.203-0.646,1.974-1.521,2.172l0,0c-0.093,0.021-0.192,0.036-0.296,0.044C427.11,364.688,427.057,364.69,427.004,364.69z
				 M424.898,355.854c-0.339,0-0.653,0.101-0.843,0.353c-0.197,0.263-0.222,0.639-0.218,1.006c0.011,1.192,0.542,5.109,2.07,6.508
				c0.379,0.348,0.775,0.496,1.218,0.465c0.079-0.006,0.153-0.018,0.225-0.034l0,0c0.826-0.187,1.072-1.042,1.133-1.728
				c0.204-2.312-1.291-5.777-2.757-6.395C425.472,355.922,425.177,355.854,424.898,355.854z"/>
			<path style="fill:#1D2144;" d="M428.353,346.163c-2.16-0.989-3.787-3.052-4.246-5.384c-0.206-1.04-0.077-2.346,0.902-2.889
				c0.957-0.531,2.132,0.019,2.872,0.799c1.68,1.773,1.951,4.66,0.632,6.715l-0.42-0.27c1.179-1.837,0.926-4.517-0.575-6.102
				c-0.588-0.62-1.551-1.103-2.267-0.705c-0.745,0.413-0.818,1.526-0.654,2.354c0.429,2.177,1.948,4.103,3.965,5.025
				L428.353,346.163z"/>
			<path style="fill:#1D2144;" d="M452.778,312.171c-0.031,0-0.063-0.001-0.093-0.004c-0.858-0.065-1.683-1.047-2.1-2.499
				c-0.471-1.641-0.349-3.427,0.333-4.9c0.174-0.376,0.435-0.836,0.902-1.051c0.398-0.183,0.893-0.158,1.399,0.065l0,0
				c0.808,0.358,1.38,0.97,1.699,1.817c0.622,1.651,0.133,3.775-0.476,5.093C453.888,311.896,453.247,312.171,452.778,312.171z
				 M452.401,304.095c-0.124,0-0.251,0.021-0.371,0.076c-0.319,0.147-0.52,0.509-0.658,0.808c-0.632,1.365-0.743,3.024-0.306,4.551
				c0.348,1.212,1.029,2.091,1.657,2.14c0.573,0.04,1.006-0.62,1.268-1.186c0.612-1.327,0.992-3.298,0.461-4.707
				c-0.271-0.718-0.754-1.235-1.435-1.537C452.874,304.176,452.643,304.095,452.401,304.095z"/>
			<path style="fill:#1D2144;" d="M494.364,252.699l-0.161-0.267l-0.179,0.117c-1.504-2.3-1.344-5.523,0.381-7.662l0.15-0.188
				l0.193,0.144c1.171,0.871,1.821,2.375,1.741,4.022C496.409,250.513,495.615,251.947,494.364,252.699z M494.643,245.399
				c-1.411,1.921-1.537,4.676-0.301,6.717c0.972-0.699,1.582-1.901,1.649-3.274C496.059,247.454,495.558,246.187,494.643,245.399z"
				/>
			<path style="fill:#1D2144;" d="M495.484,273.466c-0.79,0-1.579-0.072-2.353-0.217l0.092-0.492
				c0.088,0.017,0.176,0.032,0.264,0.047l-0.265-0.237c1.252-1.395,3.188-2.126,5.049-1.933c0.5,0.055,1.14,0.313,1.441,0.769
				c0.163,0.247,0.205,0.521,0.122,0.795c-0.19,0.623-0.952,0.815-1.202,0.878C497.608,273.335,496.546,273.466,495.484,273.466z
				 M493.658,272.831c1.608,0.24,3.276,0.16,4.851-0.24c0.497-0.126,0.774-0.302,0.847-0.54c0.039-0.129,0.02-0.251-0.061-0.373
				c-0.178-0.269-0.631-0.498-1.078-0.546C496.536,270.947,494.805,271.6,493.658,272.831z"/>
			<path style="fill:#1D2144;" d="M479.533,304.357c-0.519,0-0.88-0.101-1.023-0.391c-0.203-0.412,0.211-0.91,0.539-1.249
				c1.292-1.331,4.236-2.403,6.103-1.785c0.885,0.292,1.7,1.246,1.475,2.277l-0.034,0.158l-0.158,0.033
				c-2.094,0.438-4.289,0.692-6.053,0.896C480.068,304.333,479.782,304.357,479.533,304.357z M483.926,301.252
				c-1.604,0-3.577,0.843-4.518,1.813c-0.498,0.514-0.45,0.679-0.45,0.68c0.011,0.021,0.129,0.199,1.366,0.057
				c2.163-0.251,3.978-0.475,5.836-0.854c0.05-0.682-0.532-1.331-1.165-1.54C484.673,301.3,484.31,301.252,483.926,301.252z"/>
			<path style="fill:#1D2144;" d="M460.707,328.545c-1.747,0-3.701-0.379-4.194-1.483c-0.303-0.679-0.009-1.473,0.874-2.359
				c0.333-0.334,0.77-0.51,1.19-0.65c1.728-0.574,3.593-0.737,5.396-0.467c0.548,0.082,1.166,0.225,1.599,0.666
				c0.756,0.77,1.005,1.506,0.74,2.187c-0.538,1.381-3.022,1.99-4.987,2.092l0,0C461.124,328.539,460.917,328.545,460.707,328.545z
				 M462.26,323.958c-1.195,0-2.391,0.191-3.524,0.568c-0.363,0.121-0.735,0.269-0.995,0.529c-0.496,0.498-1.032,1.216-0.771,1.802
				c0.357,0.803,2.139,1.291,4.33,1.172c2.317-0.119,4.187-0.849,4.547-1.772c0.188-0.481-0.025-1.039-0.632-1.656
				c-0.329-0.335-0.85-0.451-1.315-0.521C463.358,323.998,462.809,323.958,462.26,323.958z"/>
		</g>
		<g style="clip-path:url(#SVGID_00000142148715781477091930000017985375782678867623_);">
			<g>
				<g>
					<path style="fill:#FFFFFF;" d="M156.751,344.187c-1.901,1.187-3.656,2.755-5.601,3.844c-1.357,0.76-2.414,0.587-3.884,1.093
						c-1.5,0.517-2.586,2.02-2.586,3.578c0,1.558,1.085,3.061,2.585,3.579c0.67,0.231,1.392,0.278,2.07,0.483
						c2.636,0.796,5.447,3.128,7.045,5.315c0.582,0.145,0.872-0.665,0.889-1.252c0.121-4.161,0.242-8.322,0.362-12.482
						C157.675,346.897,157.673,345.316,156.751,344.187z"/>
					<path style="fill:#FFFFFF;" d="M160.018,356.604l-0.617-0.787c1.193-0.937,1.968-2.204,2.126-3.479
						c0.172-1.393-0.439-2.789-1.522-3.474l0.535-0.846c1.402,0.889,2.198,2.674,1.979,4.442
						C162.33,353.995,161.418,355.505,160.018,356.604z"/>
					<path style="fill:#FFFFFF;" d="M163.12,358.63l-0.698-0.717c1.893-1.845,2.982-4.157,2.988-6.342
						c0.007-2.47-1.455-4.751-3.555-5.547l0.354-0.936c2.481,0.941,4.208,3.608,4.201,6.484
						C166.403,354.026,165.204,356.598,163.12,358.63z"/>
				</g>
				<g>
					<polygon style="fill:#FFFFFF;" points="127.325,353.141 117.205,345.923 117.205,360.359 					"/>
				</g>
				<path style="fill:#FFFFFF;" d="M98.509,360.074l-0.992-0.123c0.562-4.519,0.779-9.116,0.646-13.665l1-0.029
					C99.297,350.856,99.077,355.504,98.509,360.074z"/>
				<path style="fill:#FFFFFF;" d="M90.962,359.897c-0.132,0-0.263-0.042-0.373-0.126l-0.223-0.169l0.028-0.279
					c0.417-4.113,0.62-8.297,0.602-12.436l1-0.004c0.018,4.013-0.171,8.069-0.56,12.063l0.087-0.061
					c0.175,0.253,0.133,0.598-0.1,0.821C91.292,359.832,91.126,359.897,90.962,359.897z M90.962,358.898
					c-0.086,0-0.169,0.028-0.229,0.087c-0.121,0.115-0.134,0.322-0.031,0.472l0.27-0.187l0.224-0.295
					C91.125,358.923,91.042,358.898,90.962,358.898z"/>
				<path style="fill:#FFFFFF;" d="M128.532,360.467l-0.172-0.354l-0.035,0.008l0.032-0.015l-0.09-0.185
					c0.563-3.985,0.674-8.317,0.348-13.634l0.998-0.061c0.331,5.385,0.218,9.78-0.355,13.835l-0.081-0.012l-0.068,0.337
					L128.532,360.467z"/>
				<rect x="408.974" y="344.598" style="fill:#FFFFFF;" width="20.441" height="15.499"/>
				<g>
					<polygon style="fill:#FFFFFF;" points="443.28,350.63 441.28,350.63 441.28,344.724 446.904,344.724 446.904,346.724 
						443.28,346.724 					"/>
					<polygon style="fill:#FFFFFF;" points="457.195,350.63 455.195,350.63 455.195,346.724 451.571,346.724 451.571,344.724 
						457.195,344.724 					"/>
					<polygon style="fill:#FFFFFF;" points="457.195,360.638 451.571,360.638 451.571,358.638 455.195,358.638 455.195,354.732 
						457.195,354.732 					"/>
					<polygon style="fill:#FFFFFF;" points="446.904,360.638 441.28,360.638 441.28,354.732 443.28,354.732 443.28,358.638 
						446.904,358.638 					"/>
				</g>
			</g>
			<g>
				<rect x="104.642" y="336.669" style="fill:#FFFFFF;" width="354.604" height="4.235"/>
				<rect x="89.713" y="336.669" style="fill:#B92234;" width="219.734" height="4.235"/>
				<path style="fill:#B92234;" d="M313.673,338.489c0,2.334-1.892,4.227-4.227,4.227c-2.335,0-4.227-1.892-4.227-4.227
					c0-2.334,1.892-4.227,4.227-4.227C311.781,334.262,313.673,336.155,313.673,338.489z"/>
			</g>
		</g>
	</g>
	<g>
		<path style="fill:#D9D6CC;" d="M298.562,410.618l-226.204,0.47l-13.31,19.795l-1.406-32.581c-0.35-8.1,6.123-14.858,14.23-14.858
			h226.662c7.504,0,13.587,6.083,13.587,13.587l0,0C312.121,404.523,306.055,410.602,298.562,410.618z"/>
		<rect x="69.287" y="391.003" style="fill:#262626;" width="227.808" height="0.75"/>
		<rect x="69.287" y="398.111" style="fill:#262626;" width="145.388" height="0.75"/>
		<rect x="265.356" y="398.111" style="fill:#262626;" width="31.739" height="0.75"/>
	</g>
	<g>
		<path style="fill:#D9D6CC;" d="M288.793,456.709l171.911,0.457l12.943,19.249l1.368-31.682c0.34-7.877-5.954-14.448-13.838-14.448
			H288.821c-7.297,0-13.212,5.915-13.212,13.212v0C275.609,450.783,281.507,456.694,288.793,456.709z"/>
		<path style="fill:#262626;" d="M434.456,445.394c-5.515,0-10.985-0.035-16.376-0.106l0.01-0.75
			c10.773,0.143,21.872,0.143,32.989,0l0.01,0.75C445.529,445.359,439.97,445.394,434.456,445.394z"/>
		<path style="fill:#262626;" d="M342.936,445.395c-17.638,0-35.252-0.035-52.718-0.107l0.004-0.75
			c34.931,0.144,70.451,0.144,105.575,0l0.004,0.75C378.237,445.36,360.574,445.395,342.936,445.395z"/>
		<rect x="288.652" y="437.598" style="fill:#262626;" width="162.719" height="0.75"/>
	</g>
	<path style="fill:#D65050;" d="M259.263,96.409c-0.141-0.55-0.27-1.102-0.385-1.657c-0.438-2.105-0.676-4.324-0.05-6.381
		c0.77-2.529,3.451-5.143,6.256-3.849c2.425,1.119,2.77,5.996,1.891,8.093c0.975-2.324,2.352-5.004,4.374-6.589
		c2.577-2.02,6.275-0.277,5.379,4.225c-0.145,0.731-0.421,1.432-0.751,2.1c-1.713,3.465-3.806,6.717-5.964,9.915
		c-1.306,1.934-2.392,4.007-3.827,5.842c-0.604,0.773-1.815,0.633-2.278-0.232C261.965,104.244,260.288,100.398,259.263,96.409z"/>
	<path style="fill:#D65050;" d="M204.813,438.031c-0.071-0.227-0.137-0.456-0.199-0.687c-0.805-3.018-0.706-6.388,0.861-9.09
		c0.719-1.239,1.772-2.335,3.113-2.836c4.849-1.811,6.629,5.027,5.199,8.436c1.122-2.674,3.715-8.866,7.55-7.682
		c1.801,0.556,2.994,2.388,3.245,4.255c0.767,5.695-4.495,11.83-7.867,15.884c-0.873,1.05-2.696,3.946-4.118,3.711
		c-1.371-0.226-3.093-3.295-3.8-4.342C207.183,443.289,205.669,440.779,204.813,438.031z"/>
	<path style="fill:#D65050;" d="M379.614,61.868c-0.157-0.55-0.301-1.102-0.429-1.657c-0.488-2.105-0.753-4.324-0.056-6.381
		c0.857-2.529,3.845-5.143,6.97-3.849c2.702,1.118,3.086,5.995,2.107,8.092c1.086-2.324,2.621-5.004,4.873-6.589
		c2.871-2.02,6.991-0.277,5.993,4.225c-0.162,0.731-0.469,1.432-0.837,2.1c-1.908,3.465-4.24,6.717-6.645,9.915
		c-1.454,1.934-2.665,4.007-4.263,5.843c-0.673,0.773-2.022,0.632-2.538-0.232C382.625,69.703,380.756,65.857,379.614,61.868z"/>
	<path style="fill:#D65050;" d="M349.867,119.165c-0.113-0.396-0.217-0.794-0.309-1.194c-0.351-1.516-0.543-3.114-0.04-4.596
		c0.617-1.822,2.769-3.704,5.02-2.772c1.946,0.806,2.223,4.318,1.517,5.829c0.782-1.674,1.887-3.604,3.51-4.746
		c2.068-1.455,5.035-0.199,4.316,3.043c-0.117,0.526-0.338,1.031-0.603,1.512c-1.374,2.496-3.054,4.838-4.786,7.141
		c-1.048,1.393-1.92,2.886-3.071,4.208c-0.484,0.557-1.457,0.456-1.828-0.167C352.035,124.808,350.689,122.038,349.867,119.165z"/>
	<path style="fill:#D65050;" d="M241.663,74.714c-0.113-0.396-0.217-0.794-0.309-1.194c-0.351-1.516-0.542-3.114-0.04-4.596
		c0.618-1.822,2.769-3.704,5.02-2.772c1.946,0.806,2.223,4.318,1.517,5.829c0.782-1.674,1.887-3.604,3.51-4.746
		c2.068-1.455,5.035-0.199,4.316,3.043c-0.117,0.526-0.338,1.031-0.603,1.512c-1.374,2.496-3.054,4.838-4.786,7.141
		c-1.048,1.393-1.92,2.886-3.071,4.208c-0.485,0.557-1.457,0.456-1.828-0.167C243.832,80.358,242.486,77.588,241.663,74.714z"/>
	<g>
		<g>
			<path style="fill:#80B7C4;" d="M368.786,398.767l-0.208-0.004c1.38,0.027,2.519-1.081,2.525-2.467
				c0.006-1.368-1.149-2.461-2.516-2.488c-2.129-0.042-6.181,0.718-8.043-0.16c-3.25-1.532-0.734-7.018-0.698-9.594
				c0.013-0.964-0.048-1.968-0.515-2.811c-0.466-0.843-1.441-1.475-2.381-1.261c-1.276,0.29-1.769,1.8-2.147,3.053
				c-0.88,2.926-2.958,5.608-4.642,8.111c-1.898,2.822-3.216,6.1-3.633,9.483c-0.348,2.827-0.435,5.685-0.258,8.527
				c0.176,2.823,1.331,4.041,4.016,4.109c1.909,0.048,3.818,0.076,5.727,0.114l4.487,0.089l5.755,0.115
				c1.367,0.027,2.564-1.02,2.612-2.387c0.049-1.385-1.045-2.538-2.425-2.565l1.001,0.02c1.304,0.026,2.46-0.928,2.588-2.227
				c0.106-1.08-0.486-2.04-1.35-2.488c1.371,0.027,2.505-1.063,2.532-2.435l0.004-0.201
				C371.246,399.928,370.157,398.794,368.786,398.767z"/>
			<path style="fill:#80B7C4;" d="M343.722,397.319c-0.585-0.148-1.17-0.296-1.754-0.443c-0.641-0.162-1.347-0.318-1.938-0.023
				c-2.346,1.169-1.723,7.096-1.73,9.218c-0.008,2.128-1.212,7.163,2.047,7.457c1.119,0.101,2.388,0.154,3.206-0.617
				c0.607-0.571,0.794-1.448,0.931-2.27c0.41-2.453,0.65-4.934,0.719-7.42c0.032-1.142,0.299-4.555-0.528-5.522
				c-0.148-0.173-0.383-0.237-0.604-0.293C343.954,397.378,343.838,397.348,343.722,397.319z"/>
		</g>
	</g>
	<g>
		<g>
			<path style="fill:#80B7C4;" d="M198.999,88.04l-0.175-0.004c1.159,0.023,2.115-0.907,2.12-2.071
				c0.005-1.148-0.964-2.066-2.112-2.089c-1.787-0.036-5.188,0.603-6.752-0.134c-2.728-1.286-0.616-5.891-0.586-8.053
				c0.011-0.809-0.041-1.652-0.432-2.36s-1.21-1.238-1.999-1.059c-1.071,0.243-1.485,1.511-1.802,2.563
				c-0.739,2.456-2.483,4.708-3.896,6.809c-1.593,2.369-2.7,5.12-3.049,7.96c-0.292,2.373-0.365,4.772-0.217,7.158
				c0.148,2.369,1.117,3.392,3.371,3.449c1.602,0.04,3.205,0.064,4.807,0.096l3.767,0.075l4.831,0.096
				c1.147,0.023,2.152-0.856,2.193-2.003c0.041-1.163-0.877-2.131-2.036-2.154l0.84,0.017c1.094,0.022,2.065-0.779,2.172-1.869
				c0.089-0.906-0.408-1.712-1.133-2.089c1.151,0.023,2.103-0.892,2.125-2.044l0.003-0.168
				C201.064,89.015,200.15,88.063,198.999,88.04z"/>
			<path style="fill:#80B7C4;" d="M177.959,86.825c-0.491-0.124-0.982-0.248-1.473-0.372c-0.538-0.136-1.13-0.267-1.627-0.02
				c-1.969,0.981-1.446,5.956-1.453,7.738c-0.007,1.786-1.018,6.013,1.718,6.26c0.939,0.085,2.005,0.129,2.692-0.518
				c0.509-0.479,0.666-1.215,0.782-1.905c0.344-2.059,0.546-4.142,0.604-6.228c0.027-0.959,0.251-3.824-0.443-4.635
				c-0.124-0.145-0.322-0.199-0.507-0.246C178.154,86.874,178.057,86.849,177.959,86.825z"/>
		</g>
	</g>
	<g>
		<g>
			<path style="fill:#80B7C4;" d="M414.519,123.399l-0.168-0.003c1.117,0.022,2.039-0.875,2.044-1.997
				c0.005-1.107-0.93-1.992-2.036-2.014c-1.723-0.034-5.002,0.581-6.51-0.129c-2.631-1.24-0.594-5.68-0.565-7.765
				c0.011-0.78-0.039-1.593-0.417-2.275c-0.377-0.683-1.166-1.194-1.927-1.021c-1.033,0.235-1.432,1.457-1.737,2.471
				c-0.712,2.368-2.395,4.539-3.757,6.565c-1.536,2.284-2.603,4.937-2.94,7.675c-0.282,2.288-0.352,4.601-0.209,6.902
				c0.143,2.285,1.077,3.27,3.25,3.325c1.545,0.039,3.09,0.061,4.635,0.092l3.632,0.072l4.658,0.093
				c1.106,0.022,2.075-0.825,2.114-1.932c0.04-1.121-0.846-2.054-1.963-2.076l0.81,0.016c1.055,0.021,1.991-0.751,2.094-1.802
				c0.086-0.874-0.394-1.651-1.092-2.014c1.11,0.022,2.027-0.86,2.049-1.971l0.003-0.162
				C416.51,124.339,415.628,123.421,414.519,123.399z"/>
			<path style="fill:#80B7C4;" d="M394.232,122.227c-0.473-0.12-0.947-0.239-1.42-0.359c-0.518-0.131-1.09-0.257-1.569-0.019
				c-1.899,0.946-1.394,5.743-1.401,7.461c-0.006,1.722-0.981,5.797,1.656,6.035c0.906,0.082,1.933,0.124,2.595-0.499
				c0.491-0.462,0.642-1.172,0.754-1.837c0.332-1.985,0.526-3.993,0.582-6.005c0.026-0.925,0.242-3.687-0.427-4.469
				c-0.12-0.14-0.31-0.192-0.489-0.237C394.421,122.275,394.326,122.251,394.232,122.227z"/>
		</g>
	</g>
	<g>
		<path style="fill:#262626;" d="M439.457,410.062c-0.476,0-0.956-0.021-1.441-0.062c-9.665-0.83-17.33-9.778-17.651-10.158
			l-0.223-0.263l0.243-0.244c0.079-0.08,8.058-7.956,17.747-7.143c9.665,0.831,17.33,9.779,17.651,10.159l0.223,0.263l-0.243,0.244
			C455.688,402.935,448.481,410.062,439.457,410.062z M421.172,399.622c1.361,1.503,8.467,8.905,16.908,9.63
			c8.385,0.719,15.481-5.376,16.896-6.681c-1.361-1.503-8.467-8.905-16.908-9.631C429.678,392.209,422.586,398.318,421.172,399.622z
			"/>
		<path style="fill:#262626;" d="M445.137,401.704c-0.014,4.711-3.188,8.258-7.089,7.923c-3.901-0.335-7.052-4.426-7.038-9.137
			c0.014-4.711,3.188-8.258,7.089-7.923C442.001,392.902,445.152,396.993,445.137,401.704z"/>
	</g>
	<g>
		<path style="fill:#262626;" d="M482.072,397.454c-0.602,0-1.207-0.025-1.82-0.077c-12.224-1.052-22.231-12.737-22.331-12.855
			l-0.223-0.263l0.243-0.244c0.102-0.101,10.203-10.061,22.439-9.034c12.224,1.051,22.232,12.737,22.332,12.855l0.223,0.263
			l-0.243,0.244C502.597,388.439,493.481,397.454,482.072,397.454z M458.727,384.302c1.557,1.732,10.695,11.391,21.59,12.327
			c10.852,0.952,19.974-7.063,21.591-8.573c-1.558-1.732-10.696-11.392-21.591-12.327
			C469.493,374.797,460.347,382.794,458.727,384.302z"/>
		<path style="fill:#262626;" d="M489.28,386.949c-0.018,5.978-4.046,10.479-8.996,10.054c-4.95-0.425-8.949-5.616-8.931-11.594
			c0.018-5.978,4.045-10.479,8.996-10.054C485.3,375.78,489.298,380.971,489.28,386.949z"/>
	</g>
	<g>
		<path style="fill:#262626;" d="M226.088,131.571c-0.119,0-0.237-0.001-0.357-0.003c-10.34-0.213-18.801-9.674-18.886-9.77
			l-0.224-0.253l0.229-0.249c0.085-0.092,8.568-9.203,18.951-8.997c10.34,0.213,18.802,9.674,18.886,9.77l0.224,0.253l-0.229,0.249
			C244.598,122.662,236.269,131.571,226.088,131.571z M207.642,121.556c1.417,1.495,9.04,9.075,18.104,9.262
			c9.083,0.189,16.708-7.06,18.144-8.506c-1.417-1.495-9.04-9.075-18.104-9.262C216.724,112.85,209.077,120.11,207.642,121.556z"/>
		<path style="fill:#262626;" d="M233.322,122.089c-0.015,5.114-3.411,9.189-7.585,9.103c-4.174-0.086-7.544-4.301-7.529-9.414
			c0.015-5.114,3.411-9.189,7.585-9.104C229.967,112.76,233.338,116.975,233.322,122.089z"/>
	</g>
	<g>
		<path style="fill:#FAC34D;" d="M159.172,439.307c0.748,7.467-4.324,14.089-11.328,14.791c-7.005,0.702-13.289-4.782-14.038-12.249
			s4.324-14.089,11.328-14.791C152.139,426.356,158.424,431.84,159.172,439.307z"/>
		<path d="M144.841,437.446c-0.182-0.752-0.821-1.346-1.724-1.193c-1.381,0.234-2.062,2.548-0.789,3.338
			c0.266,0.165,0.593,0.208,0.904,0.17c0.682-0.083,1.3-0.569,1.543-1.212C144.91,438.187,144.926,437.799,144.841,437.446z"/>
		<path d="M150.003,437.779c-0.345-1.166-2.179-1.581-2.828-0.27c-0.985,1.99,2.387,3.123,2.848,0.998
			C150.08,438.242,150.068,437.997,150.003,437.779z"/>
		<path d="M145.599,447.164c-0.009,0-0.017,0-0.026,0c-2.398-0.011-4.494-1.46-5.902-4.082l0.881-0.473
			c1.244,2.316,2.982,3.546,5.025,3.555c0.007,0,0.014,0,0.021,0c2.361,0,4.828-1.719,6.288-4.384l0.877,0.48
			C151.104,445.287,148.362,447.164,145.599,447.164z"/>
	</g>
	<g>
		<ellipse style="fill:#FAC34D;" cx="454.403" cy="126.593" rx="13.196" ry="13.587"/>
		<path style="fill:#FFFFFF;" d="M446.817,128.942c0.617,2.096,2.138,3.923,4.112,4.871c2.266,1.087,5.062,0.987,7.245-0.258
			c1.741-0.993,3.042-2.696,3.615-4.613H446.817z"/>
		<path d="M450.404,124.147c-0.213-1.116-1.228-2.025-2.36-2.115c-1.134-0.093-2.278,0.649-2.664,1.716l-0.939-0.34
			c0.534-1.478,2.137-2.491,3.683-2.374c1.565,0.125,2.969,1.381,3.264,2.925L450.404,124.147z"/>
		<path d="M461.474,124.147c-0.213-1.116-1.227-2.025-2.358-2.115c-1.131-0.087-2.278,0.648-2.665,1.716l-0.939-0.34
			c0.534-1.478,2.14-2.491,3.683-2.374c1.566,0.125,2.969,1.382,3.263,2.925L461.474,124.147z"/>
	</g>
</g>
</svg>
